/* XPM */
static char *result[] = {
/* columns rows colors chars-per-pixel */
"64 64 184 2 ",
"   c #39270B",
".  c #2D2319",
"X  c #3A2A15",
"o  c #432F10",
"O  c #4A3716",
"+  c #543C15",
"@  c #5C4114",
"#  c #654614",
"$  c #6B4A15",
"%  c #6C4D1B",
"&  c #755317",
"*  c #7C5615",
"=  c #745118",
"-  c #594527",
";  c #4E4334",
":  c #5D4C35",
">  c #554939",
",  c #6C5221",
"<  c #6C522A",
"1  c #795C2B",
"2  c #6A5634",
"3  c #7C6131",
"4  c #5E554D",
"5  c #655644",
"6  c #6E5E4C",
"7  c #745B41",
"8  c #7C5E43",
"9  c #7F6145",
"0  c #7F6148",
"q  c #7E694A",
"w  c #746553",
"e  c #70665B",
"r  c #786958",
"t  c #766D68",
"y  c #7F7163",
"u  c #875E15",
"i  c #835D1A",
"p  c #8E6113",
"a  c #87611F",
"s  c #946615",
"d  c #976915",
"f  c #9B6B15",
"g  c #94671C",
"h  c #926A1F",
"j  c #9D6D1A",
"k  c #9F701E",
"l  c #A16F16",
"z  c #A57216",
"x  c #AB7617",
"c  c #AE7916",
"v  c #A3721A",
"b  c #A9781F",
"n  c #B47B16",
"m  c #B97E14",
"M  c #B37D1A",
"N  c #B87F1B",
"B  c #886424",
"V  c #8D672A",
"C  c #83683B",
"Z  c #8E713D",
"A  c #977437",
"S  c #A47626",
"D  c #AB7B24",
"F  c #A67A2D",
"G  c #A97A2A",
"H  c #A47D3B",
"J  c #816246",
"K  c #84664A",
"L  c #88674C",
"P  c #86694D",
"I  c #896A4E",
"U  c #9B7D4B",
"Y  c #876A51",
"T  c #8C6D52",
"R  c #8B6F59",
"E  c #906E53",
"W  c #867151",
"Q  c #8E7055",
"!  c #8E7359",
"~  c #8E785E",
"^  c #917256",
"/  c #9B7D52",
"(  c #93755A",
")  c #98765B",
"_  c #95795D",
"`  c #997A5E",
"'  c #837365",
"]  c #8B7965",
"[  c #867668",
"{  c #8D7B6B",
"}  c #957B61",
"|  c #9A7D63",
" . c #927E6B",
".. c #9A7F6A",
"X. c #B78015",
"o. c #BD8216",
"O. c #BC8118",
"+. c #B5842B",
"@. c #B7882A",
"#. c #AC823A",
"$. c #B88831",
"%. c #B0853B",
"&. c #C28516",
"*. c #C68916",
"=. c #CC8D16",
"-. c #C38619",
";. c #C58919",
":. c #CB8C18",
">. c #D28E16",
",. c #D18F18",
"<. c #D49116",
"1. c #DA9516",
"2. c #DE9916",
"3. c #D49219",
"4. c #DA9519",
"5. c #DD991A",
"6. c #E39B16",
"7. c #EA9F17",
"8. c #E29B19",
"9. c #EA9E18",
"0. c #EDA117",
"q. c #E7A01B",
"w. c #ECA119",
"e. c #F4A617",
"r. c #F6A816",
"t. c #FBAA17",
"y. c #F3A518",
"u. c #F7AA19",
"i. c #FBAA18",
"p. c #CD9524",
"a. c #D19524",
"s. c #D79B26",
"d. c #C7953B",
"f. c #D69E35",
"g. c #C8A136",
"h. c #D2A635",
"j. c #E6AA27",
"k. c #E3B030",
"l. c #9D8257",
"z. c #9F965E",
"x. c #AB8647",
"c. c #B38D4A",
"v. c #A38555",
"b. c #A3865A",
"n. c #A5885D",
"m. c #B28F58",
"M. c #AF9D56",
"N. c #B79359",
"B. c #9C8166",
"V. c #95816C",
"C. c #9D836B",
"Z. c #948272",
"A. c #9A8572",
"S. c #9C8975",
"D. c #9B897A",
"F. c #A58A63",
"G. c #A0846C",
"H. c #A38A6D",
"J. c #A98E6B",
"K. c #A49F6E",
"L. c #B59A6A",
"P. c #A28671",
"I. c #A48A74",
"U. c #A88D77",
"Y. c #A48D78",
"T. c #AA8E79",
"R. c #AA9676",
"E. c #AC937D",
"W. c #CAB954",
"Q. c #C0A064",
"!. c #CCC563",
"~. c #D4CF65",
"^. c #D9D66B",
"/. c #E7D963",
"(. c #EAEA76",
"). c #F8F77C",
"_. c #868182",
"`. c #B8A687",
"'. c #BDBAB4",
"]. c #D4B19E",
"[. c #E7B7AB",
"{. c #C8C7C7",
"}. c #D8D7D5",
"|. c #E2E0DE",
/* pixels */
"_ ( ^ ^ B.` l._ _ ( ( ^ T I T ^ W I Q I _ ( ( ( Q Q Q T P I ^ Q ( ^ T ) ^ ` T T ( B.~ ( ^ ^ ^ ^ ( ( ` ( ) ( T I ^ ( ( ( E E T P.",
"Q ^ I T ^ ( ( ( T T T T T ^ ^ ^ ( ^ Q ( B.Q Q W Q Q I P P L P L E P I I I T T T ^ _ ! ( ^ ^ I ^ Q Q Q ( ( ( T K I I Y L K L L C.",
"P T T ^ ^ P P ^ T T I I Q _ ` ( ( ` ( Q B.Y I P Q ( Q P P L L L I ^ I P K K I T I ( ( T ( ( ^ Q ^ W I I ^ ^ I K J K K P 9 L T P.",
"P Q I P I P J T T ^ E T E _ ` ^ ^ ( ( Q ` P I K Q ( Q P P E ^ ) ) ` E K I I I ^ Q ( ! ^ ( ( ^ Q ^ I I T ^ ( ^ Q J J J 3 9 J L ..",
"^ I K I I Q J K I Q I Q Q ^ ^ I T Q Q Q B.Q I P ^ ` ( Q Q I ^ E ( ) ( K W I I ^ ^ B.~ ^ ( ^ Q T I Q T I Q ( ( Q K J J L J K R T.",
"T T K I T I P J P I I P Q T E Q Q Q Q ^ B.^ I I ( ( ` ) I ^ ^ E I I L J P T P P ( B.( ( ( ^ I I Q ^ I Q ^ ^ W P J J L J 0 J T P.",
"^ I I J K K J P I Q J P ^ ^ ^ ^ T Q Q Q } Q Q Q Q W ( ` ^ P ^ ^ L K J J K J J I ^ B.Q ^ ` B.^ Q ^ Q I I I Q ^ I I T I P P I ( U.",
"P I T Q ^ P J J I Q I J Q T Q ^ Q I T Q B.Q Q Q I K ^ ( I P I P J J J K K L I ^ ^ | Q ^ ) ( ( ^ ^ Q Q Q P Q ^ I ^ ` ^ ^ ^ R ( T.",
"E L E ) ) I J J I I I K I W P I I I I Q G.P K P K K T ^ Q I I K L I I I P P I I Q ` ~ T T Q Q I ^ T P K J K I ^ ^ ^ Q Q Q I Q P.",
"E E E ) ) E L K P I I 9 K Q I ^ I Q ^ ( B.I I P 9 I T T Q Q Q Q I I T ^ I Q Q T I ` _ T I Q T P K K K K K I I Q I ^ Q Q Q Q Q I.",
"I K L ) ^ E ^ P P Q I P J I P ^ ^ ( E ) B.Q Q Q Q Q Q W Q Q Q Q I Q T K I Q ^ I T _ } T I Q Q I K I I I I ^ ^ Q I Q Q I P T T U.",
"P P L ^ ^ ^ ^ I I ^ ^ I P ^ ^ ^ ( ( E ( B.Q Q Q Q } B.! Q Q Q } B.C.] V.Q T T I T ( } T I Q Q I T T E I I ^ ^ T Q T I J P L T C.",
"L P I T T ^ P P P Q ^ Q Q Q Q W ^ ^ T T _ Q I Q A.y ~ F.U.B.C.m.B & + 5 A.Q Q W T ^ | Q T I P P I I I K K P P Q ( T I K I K Y C.",
"K K K I Q Q Q I Q Q Q ^ Q I I I T T J P } ( Q } ; @ * a F N.d.O.d o.b 3 A.` B.` T T B.^ ^ T I J K K 9 9 P ^ P P ( ^ I K T ^ ( T.",
"K I I K I ) ) ) ^ Q I I ^ ^ I J J 9 K I } ~ Y ~ O j =.*.O.=.,.n O.2.2.x.A.A.D.B.^ ~ | ( P K 9 K J J J L I ( I I ` ( T I E R ^ I.",
"I T T ^ ( B.( ^ W I ^ ^ ( ( E J J J P I B.T ! K q =.6.O.N f u >.0.<.X.l.A.{ Z.C.( ( B.` I P T I K P W T E ^ ^ E ( | ` ( T L ^ T.",
"W T ( ) ` ( T I P P Q Q ^ ^ I K J J K T | }  .' V.G ;.0.t.w.&.r.t.r.5.h q { A.P.Q Q C.Q Q I I Q K ^ ( ) ^ ^ E E I ( ` ( I I W G.",
"I ^ ^ W ^ ( I I P J I Q Q Q P J Y 3 K L |  .y ' w a 1.t.i.t.&.r.i.i.r.O.@ 7 Y._ Q Q _ Q Q I P I J I ) ) ( ^ I I K ^ ( Q K I I ..",
"^ I I K I T Q T P P I ^ Q I I J J 0 9 K | ..} ' X v i.i.i.i.o.r.i.i.t.2.O.5.x.G.Q Q _ I Q I K K P I E E P I P P P Q ( ^ P L T ..",
"^ ^ I I I I E ( P I T Q I ^ I K L L L P | K | : $ n t.i.i.i.O.r.i.i.t.0.<.q.n w C.Q } ^ I Q Q Q I P L E P P P K K I I ^ T ( E P.",
"! ! Q Y Q ~ _ ! I Q ~ Q ~ _ ( Q ( Y R Y } !  .-.3.&.t.i.t.t.O.e.i.i.i.i.3.6.x + S.~ C.( Q Y _ ( ` ^ ~ _ ( R T R R ! ! ! _ _ _ C.",
"T | _ _ _ l.} | B.| | | ( ( ` ` } | ) _ ..} > n 0.o.t.t.i.t.o.u.i.i.t.t.3.8.6.o.Z C.P.| _ _ C.C.G.B.B.l.| _ ~ Q Q _ ( ( ! ( R A.",
"K _ ( Q T ( Q Q Q ( ( ^ T K I I I K K P ( ..- l 0.o.t.t.i.i.*.w.i.i.r.=.;.y.t.6.i S.| ^ I Q Q ( ( ^ T T T T T Q Q ( E ( T ( _ I.",
"P T ( ^ Q Q T T I I ^ Q T K K P K K 9 L _ C.@.e.e.=.*.6.6.4.k j G Q.`.L.4.t.t.s   Y._ I Q ^ Q P P ^ T I I T T ( _ ( _ ) ( ( ^ G.",
"P ^ ( ( ^ ^ ^ T I T ( ) ^ T J J J 8 J K ~ A.G 6.t.9.c.'.}.{._.t {.|.`.p.r.t.i.s   C.~ T I I T P J I I Q T Q Q ( | ^ ^ ( ^ Q Q U.",
"K ( ( ( T T T T W I ^ ( ( T J J J L K K } } : # 6.r.y.@.z.K.].[.R.!.W.a.t.t.r.5.q ( | T P K I T J P P Q Q T Q ( ^ T T ^ Q T Q I.",
"I ( ( ( I T ^ T T Q ^ ^ W P J J K J J J _ ! [ O 5.i.y.h.^.(.M.#.!.).^.g.r.2.n V C.~ } T P P T T P J P I I P T Q E I I Q T ^ ( U.",
"I ^ ` ` ^ E ^ ^ I I I ^ Q I I E I K L T B.Q _ W -.=.5.g.~./.p.y.g./.W.s.r.j : { P R | T P K K K J P I Q K J Q ^ ^ ^ Q ^ Q T R U.",
"K ^ ) ( ( ^ ( T T Q P ^ ^ I Q ) ^ ^ Q Q B.T P _ | < v 5.h.k.q.r.u.j.s.;.<.h  .R K T _ P I I ^ P J J P Q I K Q Q Q T T T I Q ( T.",
"K E ^ T ^ T E ^ P K J K T ^ ^ ( ^ ^ Q T } Y Q I | A.` D -.;.O.;.i.t.w.4.O.% { Q I T _ I E ) ) E J 9 I I I K P I I T I I P Q _ T.",
"I E I Q I P P K K 9 K W T ^ I ^ E T ^ T ` ( ( Q _ C.J.,.w.0.9.0.i.i.i.y.*.& w ( I ^ ` E E ( ) E I J K I I J J Q T T T T T ( ( T.",
"T I I ( ^ I P P I K I Q ^ Q W ( ^ ( ( ^ B.} ` Q | R.a.t.i.i.i.t.t.=.t.r.*.*.U ! I ^ ` E L ) ) ( I I K K K K 9 P K ^ T T T ( ( P.",
"^ I I ^ Q I Q Q I I T ^ Q Q Q I I J I T _ _ Q T | #.t.i.i.i.i.i.r.x u.y.=.=.&  .( } ( T L ( E ( E R K ^ ^ I K Q ^ ^ ( _ ^ ( ( T.",
"^ Q I W P P I I I K P I P Q ^ Q P K P K ~ _ Q P H.e.i.i.i.i.i.i.r.m i.i.>.z = < | ( ! L L T T E L T P T ( I I ^ ^ Q ^ ^ I W I G.",
"^ ( ^ T K J K J J K P T I I ) ^ P P T ^ } ( Q Q H t.t.i.i.i.i.i.r.o.i.i.>.o.O.-.' Q ~ K L I T T ^ I T Q T ^ Q I I K T Q K K T ..",
"( ( I J 9 K J J K P Q ^ P Q ` ( T T Q T B.! Q } n t.t.i.i.i.i.i.7.&.t.i.3.>.0.d O | ~ P K L T ( ( ( ( T W I ^ ^ I K K 9 K I ^ P.",
") ( P P Q I K L I E E ^ ^ I ) ` ( ( T I B.~ Q C.o.i.i.i.i.i.i.i.&.7.i.i.0.o.*.$ O | ~ I Q Q ( ` ( ( Q I ^ ^ ^ ` E J J 8 K I ^ T.",
"` ^ ^ I I I P ( ) ) ^ ^ T T T ( ` ^ I I } Q Q _ M i.i.i.i.i.i.6.*.i.i.i.6.-.2.=.3 B.~ Q ^ ( ` _ Q P P P I ^ ^ ( I K J J K I ( P.",
"T Q ^ P P I J E ` ) ^ ^ T I P Q ( Q P P ~ Q Q ( l.i.i.i.i.i.i.N t.t.i.e.&.x l $ A.Q ~ Q Q Q ( ( I P P K P ^ I ^ L J K J K K ( U.",
"I I T I L K P E E E L L I P P Q ( Q P P _ Q ( ( U.+.t.i.i.i.i.N t.i.i.r.i.5.,  .Q Q ` Q P K P T ^ I I P I ( ^ T I J J J J L E G.",
"T ^ I Q W I I I I E L I I K P Y Q Q T Q } _ ( Q ( S.b.$.s.j.8.v :.w.w.<.q.1.H.Q ^ ( B.Q K P Y P Q ^ K I I Q I Q T J K J L L R C.",
"( ^ I I ( ^ ( I Q ^ T I P P P Q T Q Q ( B.K P P P K Q ~  .1   . H.c 6.c # o A.Q Q B._ I Y K Y Q Q Q P K Q Q I ^ ^ I T K P K L C.",
"C.B.B.B.H.H.J.C.G.B.B.B._ _ } | _ } } _ C._ C.B.} B.B.B.E.f.&.5 E.*.;.f * # E.C.| B.C.~ } _ | | B.C.B.} B._ ( | G.B.| _ _ | ..E.",
"Q ^ I T ( _ ( ( T T T ^ Q T Q ( Q Q T ( B.T ( ( Q Q Q Q J.s.r./ I.6.i.>.X.k C.I P I ~ I P K L J I Q T T I T K ^ T I T I K R _ I.",
"I T T ^ R I I ^ I I I I T _ _ ( ( ( ( ( } Y Q ( ^ Q Q ( J.8.i.b.A.7.i.>.m u V.P P Q _ L 8 9 K 8 K Q T Q T P P E Q Q P P L I ( T.",
"P I I I I I K I I ^ ^ I R _ l.Q ( ( ^ Q } T Q ( ( ^ T } N.7.t.n.I.6.i.1.&.c ] K K T | K K 8 L J P Q Q Q T J P P I ^ ^ T Q Q R I.",
"^ Q K I T T J K P ^ ^ Q Q ( Q Q Q ^ Q I B.Y ( ( Q R R } N.e.i.v.I.2.i.>.>.1.~ R ~ S.D.B.P 9 K J I Q ^ Q Q P P P I ( ` ( ` T E P.",
"T I K I T I K K P I I I I Q Q I Q Q _ Y.b.F b G x.B.C.A.%.7.i.+.A.>.i.6.=.x + 1 . j X., ] Y 9 9 T ` ( ^ Q T I ^ ^ | _ ^ T I ^ I.",
"^ I P K L K J P I T K K T ( ^ ^ ( Y.c.q.t.t.e.6.o.n x s z o.5.5.C.&.t.t.=.*.*.6.g =.w.s - { J J I ^ ( P W I ^ ` ( ` T P P P I G.",
"I I I I ^ L J J P Q P P ^ T Q Q C.%.0.r.t.0.o.X.0.t.t.t.t.y.3.&.v =.t.i.2.=.7.t.r.u.y.;.% V.Q I I I ^ Q Q T ^ I ^ Q E I P K I P.",
"I I Q ` ^ I J J L I I K P T P ^ B.=.6.6.r.&.o.t.t.r.t.t.i.i.t.t.i.i.i.i.t.4.=.1.t.t.r.O.< S.^ T Q ^ T I ( Q I P P E I I I L I P.",
"^ E T ) ( E L J P I I K K ^ W _ _ 3.4.4.r.z =.r.2.6.t.t.i.t.t.i.i.i.i.i.i.t.7.>.=.t.6.* 6 P.( ^ ^ ^ P I Q ^ I I ^ ^ ^ ^ I L R P.",
"I P I ^ ^ E T P P I I P J P I A.6 f *.<.i.u 6.t.n y.i.i.t.t.t.t.t.i.t.t.i.t.t.e.B b.` r ' C.( ^ P I J P I Q I I E E E E I L E U.",
"P I I ( ^ ^ ( T I ^ Q I K ^ ~ C.S.A.H.l.H a &.i.x i.t.3.c 6.y.z p d z b S G H C > 4 D.B._ ~ T R I Q K 9 P I P J L E ) ) I E ( I.",
"P P I T E E L P I Q ^ I Q ^ Q T ( ( R ~ U.e ; A Z A S W y ] } V.C._ _ _ ( ~ } } ~ A.Y.C.( Q I T P I P P I I P J J I ) | E L ( I.",
"K K P I E E I P Q Q ^ Q Q P P I T T K L _ _ ^ ^ T L q L J J K K Y P I _ ^ P K T ^ _ } Q I I T Q Q Q Q J I Q I J J L ( E T I E I.",
"K P K P T ( _ ( ^ Q W I ( Q I K J J K I } | ( I K J J J J J L E ^ I E ) ( T I Q Q _ } Q Q Q T ^ ^ ( Q P J Q I P J K K K I I ( E.",
"T I T Q ( | ( ( Q I Q Q ( ) T J J J L I | } ( L K T L K L L E E ^ T T ) ` ( ^ Q P _ } ^ Q Q Q I Q I Q P I I P K K L T I K I ( E.",
"I T ( _ ) _ T Y P I Q Q ^ ^ I K J J L Y | | ^ T T I T K ^ ) ^ E ^ I E T ( ` ( I I Q } Q T ^ T T ^ ^ Q T Q Q I K J T I I K T _ U.",
"P Q ^ E ( ( T L J J I Q ^ ^ L J K 8 K L ..( E ^ L I T J E ` ) ) ^ E I P ^ ( Q P I T _ T ^ ( ^ ^ ` ( Q I Q Q I T J I T K L T R } ",
"Q T P K I T T T I L R R T T K J J J 8 K | R E E I K J P T E T I Y T P K Q ( Q P K R ( ^ ( ( ( ( ` ` Q I T T I R I P T ^ T I E ..",
"Q Q P I I I E ^ K I T T T ^ I J L L L I | ^ E Y T T T I I L E K L P K K I Q Q I R ! | ) ^ ^ ( ( ^ Q Q I I T T ^ ^ ( ^ T T ^ ) I.",
"T T P P I E ^ T K L T I T ! E I Y J L J ) } ^ Y T ( T ( I E ( T I P K Y T T T ^ ( ( ! I I P P R T P I T E ( ( ( _ ` | R T T ) T.",
"8 0 8 8 J R L Y J J T K L Q L L L 8 J J R R I L 2 K R ! Y Y T T K K K 0 Y K K T Y T Y 8 8 0 8 8 9 9 K I R T T Q R Q ! Y P L R .."
};
