/* XPM */
static char *result[] = {
/* columns rows colors chars-per-pixel */
"64 64 221 2 ",
"   c #775940",
".  c #7C5E43",
"X  c #7F6145",
"o  c #7F6148",
"O  c #B61306",
"+  c #912D0F",
"@  c #9D3213",
"#  c #9B3A14",
"$  c #AD2A0D",
"%  c #B02D0F",
"&  c #A93414",
"*  c #A83916",
"=  c #A33D19",
"-  c #B63C18",
";  c #CE1D06",
":  c #C4360E",
">  c #9D4415",
",  c #A34117",
"<  c #A94519",
"1  c #AC4B1A",
"2  c #B84618",
"3  c #B24B1A",
"4  c #AB531C",
"5  c #AD5B1B",
"6  c #BD5417",
"7  c #B3561D",
"8  c #B35A1D",
"9  c #B8671F",
"0  c #B64D21",
"q  c #96683F",
"w  c #AB6428",
"e  c #BC6523",
"r  c #BB6B23",
"t  c #BF7426",
"y  c #B5753B",
"u  c #C14D14",
"i  c #C6561A",
"p  c #CB661D",
"a  c #C55A2B",
"s  c #D45A27",
"d  c #CA5C33",
"f  c #C76924",
"g  c #D46A29",
"h  c #C67626",
"j  c #C57C26",
"k  c #C57E2B",
"l  c #D47928",
"z  c #CE6234",
"x  c #CE6833",
"c  c #D46D3A",
"v  c #CB7B35",
"b  c #D47334",
"n  c #D77637",
"m  c #D57539",
"M  c #D97A3B",
"N  c #816246",
"B  c #896946",
"V  c #84664A",
"C  c #88674C",
"Z  c #87684D",
"A  c #896A4E",
"S  c #966B48",
"D  c #9A7744",
"F  c #94734C",
"G  c #9D7C4A",
"H  c #876A51",
"J  c #8C6D52",
"K  c #8B6F59",
"L  c #906E53",
"P  c #8E7054",
"I  c #8E7359",
"U  c #917256",
"Y  c #977852",
"T  c #9A7B53",
"R  c #93755A",
"E  c #98765B",
"W  c #96795D",
"Q  c #997A5E",
"!  c #A47E42",
"~  c #A47B4A",
"^  c #967B61",
"/  c #9A7D63",
"(  c #9A7E69",
")  c #D97B40",
"_  c #3D952C",
"`  c #468D29",
"'  c #449C31",
"]  c #4B9A32",
"[  c #6A9A2D",
"{  c #4DA52E",
"}  c #46AB2D",
"|  c #54B42C",
" . c #47A731",
".. c #54AA34",
"X. c #57A639",
"o. c #5AB437",
"O. c #70A52B",
"+. c #65A833",
"@. c #74AC35",
"#. c #68B53B",
"$. c #63BA3C",
"%. c #77BA39",
"&. c #69B941",
"*. c #70C341",
"=. c #8B9A2B",
"-. c #A9902A",
";. c #AC833D",
":. c #AC883C",
">. c #BD8D36",
",. c #B38D3C",
"<. c #BC9636",
"1. c #93A42C",
"2. c #99B23D",
"3. c #A5A832",
"4. c #B7B73B",
"5. c #FA8F1D",
"6. c #FA961C",
"7. c #FAA31C",
"8. c #FBA91B",
"9. c #FAB11C",
"0. c #F9BD1B",
"q. c #CC832B",
"w. c #C38829",
"e. c #CE8B2D",
"r. c #D78929",
"t. c #D38D2C",
"y. c #D4932B",
"u. c #D99A29",
"i. c #DA853B",
"p. c #DC8938",
"a. c #C99732",
"s. c #CB953C",
"d. c #D69735",
"f. c #DB9C34",
"g. c #E48727",
"h. c #E3892C",
"j. c #F98C20",
"k. c #E6972C",
"l. c #F99425",
"z. c #FA9C24",
"x. c #FC9B2A",
"c. c #E38E39",
"v. c #E79736",
"b. c #F49B32",
"n. c #FC9B32",
"m. c #D6A32B",
"M. c #CCAB31",
"N. c #D6A539",
"B. c #DBA43B",
"V. c #C6B436",
"C. c #EAA82A",
"Z. c #F3A226",
"A. c #FCA424",
"S. c #FCAA23",
"D. c #F9A329",
"F. c #FBAB2B",
"G. c #E7B428",
"H. c #FAB323",
"J. c #F6B827",
"K. c #FABE2B",
"L. c #E9A434",
"P. c #E6A837",
"I. c #E4A93A",
"U. c #FCAB34",
"Y. c #F7A438",
"T. c #FCA63E",
"R. c #E8B333",
"E. c #ECB23B",
"W. c #F9B635",
"Q. c #F5BC35",
"!. c #FCBD3E",
"~. c #E3C03C",
"^. c #FAC333",
"/. c #FBC33B",
"(. c #9E825A",
"). c #A68244",
"_. c #A98648",
"`. c #B18F4B",
"'. c #BA9346",
"]. c #B49549",
"[. c #A98A56",
"{. c #B49455",
"}. c #96BA41",
"|. c #B4AD43",
" X c #9C8166",
".X c #9E826A",
"XX c #A0846C",
"oX c #A3896F",
"OX c #A28671",
"+X c #A68A75",
"@X c #A88D77",
"#X c #AA8E79",
"$X c #AE927D",
"%X c #DB8943",
"&X c #C49543",
"*X c #D39C43",
"=X c #C19C50",
"-X c #E18347",
";X c #E09044",
":X c #C9A445",
">X c #D3A943",
",X c #E5A64A",
"<X c #F8AC43",
"1X c #E8B748",
"2X c #F9B745",
"3X c #FCBB43",
"4X c #88C442",
"5X c #90C243",
"6X c #FCC343",
"7X c #F5C846",
"8X c #FEC34B",
"9X c #FCCD4C",
"0X c #FCD34C",
"qX c #E7C952",
"wX c #FDCC54",
"eX c #FADA5A",
"rX c #FCE252",
"tX c #F3CD60",
"yX c #FDDC64",
"uX c #FBDA68",
"iX c #FDE567",
/* pixels */
"W R U U  XQ Q Q W R R P J A J U J A P J W P R W I P P J A J J L R U J W U Q J J W  XI R U U U U R R W W Q R P A U R R Y U L A oX",
"P U A J U W R R P A J F P P P R R P P R  XP P J P H H Z V C A V L A A A A J J J U W I W U P A U P P P R R U J V Z Z Z V V A C .X",
"Z J J U P V A U A J J A J W / R W W W U  XJ Z Z J W P Z V A C C A U J A V V A P Z U I P R R P P P J A Z P P H V V V V V . C J OX",
"Z J A Z J V N P A U U A L W Q U P W U P W Z Z Z J W P Z A J U E E Q J N A A V P P W I U W R U P U A A J R W P P N N N . X V C ( ",
"U J V Z J J N V V P P P P R U A A P P P  XP A A Y W W J J J L U U Q R V J A J P U  XI U W U J P J J A A P Y P P C X N C V V J #X",
"J J V A J A V V A A A V P J J J P P P P  XP A A I W (.W J J U L L A V N A J Z V R  XW R U P P A P P J P R P P V N N C N X o J OX",
"P J Z X V V N V A P N V U R U U J P P P / P P P J J R W U A U L C V N N V N N A U  XP P Q Q U A U J J J V P P Z J J H Z Z J U #X",
"A A J P R V N N A P A V J J P U P A A P  XI P P Z V P W A V J A V N N V V V J U U / I L W W W P R P J P A P W A P W R P P P R #X",
"J C L E E J N X Z A A V V P Z J A J A U XXV V A V B J R P Z A V V A A A V Z A A P Q I P P P P J P J A V N N A P U U U P J J P OX",
"U L S E R J A V V J A N V P A P A J J R  XA A A X Z J J P P R P A A J U A P U P A Q W A V P P V V V V V V J A P A I P P P P P OX",
"H C A E U L L A V P J V X A Z U U R L W XXP P A P P P J P U P J A A A N A P U A H Q  XA A P P P V A J A A U U P J P P Z H J P @X",
"Z C A U L U U J A R U A V U R P R R U U  XP P P H P P Z P J J V N V V V A A P A A I ^ P A P P A P A A J A U P P J J A N C H H .X",
"C Z H J J U V Z Z P U P P P P P P P P J W P J P P P W R U J V V N V P P A P A P P U / P H A A V A V A V V A V P R J A V A V A .X",
"V V Z Z J J U A P P P P P A Z A P P X A W R P P P U W P Z U U Z P P P R U R W W J P  XU U A V N V V N N V U A A R U A V J U U #X",
"C Z Z Z J W W W U P A A R P A X X N V H  XP A V B A J Z A P U V A A P U A U Q Q P P  XW A V X V N N N A L U A J Q R J H L J U +X",
"H J J U W (.R P J A U P R Q P N X X Z J  XH N N N V N N A A U U P A P U A P U R R W  XW A Z P A V A A A L U J J R / ^ E J H U #X",
"A P W W W W A V A A P P P P A V N N V A / J V V Z o X V P P R U A J J J A P P W P P .XP P J J J V U R E R U P P A R Q R Z A P oX",
"A P P J U W P V V X A P P P Z N V X V A XXA V N . X X X P P E R P A A P P P W W P P ^ J P Z Z Z N A Q E U U A A V P R P V A H / ",
"P J Z Z A A P P Z A A P P P A X N N N V / J A X Z Z Z V N A U U J Z A P P P W P P P W Z P Z Z V A A L A A A A V V J R U H Z J ( ",
"P U Z A A A L U V A P P A P A N V V V A Q V C V V ,.m.d.,.F R R U U P P P P P I W P ^ U J P P J J A C L V A Z V V J J P J P P OX",
"I P P H P W I I A P P P I ^ R I U H K H / I J R '.S.A.D.F.R.V.`.(.W I I W U P R W I .X^ I J W R Q P U W I P P K P I I I W R ^ .X",
"K  XW W Q / /  X X X X XR I W (.^ / Q R ( I K _.Z.x.x.n.T.2X0X0XR.].[.(.Q U P R R  XoX( W W .X.XXX X X/ / / I P I W R I I R I OX",
"V W U P P P P P P R W P J Z H H J V C H I H D u.U.T.<Xb.<X1XqXqX0X~.R.a.<.:.D N P W ^ U H P P E R U P J H J P P P R U R J E R OX",
"V P W P P P P A A A P P P o B A V V . C ^ _.m.W.2X2X<X<XY.B.2.|.1XR.V.V.m.m.u.a.! Q R J J U J C V U J A J A A W W R R W R U I OX",
"V U W W U U U A A P R W U J X X N . N B `.R.Q.3X3X2X<Xc.g.w.@.@.}.4X*.*.%.1.u.Z.L.N.'.D H Z J C N P J P J P J W  XP U R R P P OX",
"V U W U J U A P A J U R R J N X V C V :.R.K.Q.3X2XY.v.g.q.-.#.X.......X...+.=.C.W.!.7XqX`.C A J N V V U P J P U U J J U P J U +X",
"P U U R A A U P J P U U J A X N B B y G.K.W.W.Y.Y.b.f.2.%.@...' ..o.&.&.$.@.4.E.!.8XyXrX|.V J J V V V A A V P P J J A P J R R OX",
"V U Q Q R A U P Z A Z U P A A P H q G.0.S.D.z.x.x.P.5X$...] ]  .} o.} } +.4./.!.6XeXiXI.S N N V N V A P N V P U U U P P P J U #X",
"V U Q Q R L R P J P Z U U J P W (.G.9.7.6.5.j.l.Y.5Xo.{ X.&.o.o._ _ ` =.~./.6X6XwXiXeXx ;.L U C N N V P A V P P P P J J H P R +X",
"V L A U U A P P V V N V J P U R ,.0.9.7.6.5.5.l.M.| { &.&.} ..#.+.q.g.Z.Q./.3XwXyXiX,Xi.].Q E A V X V J A V V J A J A H Z P ^ #X",
"A A A P P A V V Z N V J J P A U `.R.G.0.8.7.6.z.=.] o.| { [ <.3.O.u.Z.J.^./.8XyXuX1Xi.B.F R Q L Z V V J A N N P A P J J J R W #X",
"P A J R L A A V Z V Z U P P J R (.5 y.G.J.0.H.8.=.O.O.O.3.N.A.Z.m.G.H.K.^.7XwXuXtX;Xi.a S U E R A Z V V V V X V V U J J J U R OX",
"P A J P U A P J L A P U P P P J ).u , 5 t.m.P.F.k.r.k.C.F.F.A.A.8.9.H.K./.0XyXuX,X%Xi.z `.U U U U J A P U P N P P R W W P U W @X",
"P P J A V V A A A V V A V P U A ).e.j j e 3 5 k y.h.k.Z.H.H.S.A.z.z.F.!.9XeXiXqXi.m M s.G L J L C A V J P A A U P P R P A J J .X",
"U U U P V V V V N N V A A Z W U Z w 9 9 j q.t 4 8 f q.k.Q.K.H.Z.z.x.U.2XwXiXyXd.b m M y B A L L J A P P P P P A A Z P P V C J  X",
"W R A N X V N N V C U U A U Q R ! < & $ 1 5 r q.r i 3 < 9 u.R.J.Z.F.U.8XyXeX1Xc x n c a ;.B A E Q W R J P A U U J X X X V Z I OX",
"W R V A P A V A A L L U L J R Q '.y.f 2 & @ = 4 j P.k 6 2 , 3 j R././.9X0X7Xi.d d %XM c ].P U / R U U A U U U Q L V N . V A R #X",
"Q U P A A A V U Q E U L J P J W L , q.P.u.i - = + > 5 I.E.L.l 0 < h f.I.P.n n n z z %X*X(.W Q W J A V A A U U U A V V N o A U OX",
"P P U V A A V A Q E E U P A Z P ! 1 < # j L.q.1 ; O # # > 5 e.P.l 2 < = c -Xc.c a d d.(.P J R R J V V N A P P P C N V . V V R @X",
"A A P A C V A L L A C A A Z V P :Xu.6 - = # h P.R.h.6 - = * # 4 t.b.s 7 s c.v.c.M v {.P Z V Z J P J A A A U P P A N V N . V L oX",
"P U A P P A J Z A U V A A V V A J ].N.t.3 % & 8 h t u.l 0 2 - * @ 5 j f.1Xc.n ;Xm &XQ R Z Z H Z P P Z A A P A J J N V V V Z J OX",
"R P A Z R P I J P U J A A V Z P J J Y '.>Xg.f 8 2 & 1 q.e.t.l i : * # # e s n c.&X[.^ J H V A P J P Z V P P A U P A J V Z V C .X",
".X X/  XoXoXoX.X.X X.X( W W ^ ( ^ ^ ^ E [.:X>Xs.m.g a 1 8 p e.u.g.g 2 1 b v.p.%X{.( ( R ^ R / /  X.X X^ / W R ( .X X^ ^ ^ / ( #X",
"P U A P U W W U J P A J J P P R P P J R .XA T ~ _.,.f.y.p % < 1 t t.f e.k.i.a y C J R Z Z V Z N A P J J J J V U L H J A Z J E #X",
"A P P P P V A U J J J Z P R Q U U W W U / J J R R J _.=XB.h.l 7 & 1 5 e n s b q V U W C X X V . V P J P J V A P P J Z Z V H R #X",
"V A A A A A N P J P J J J W (.P U W P P / H P R R U J U G ).'.B.h.s - @ ) i.>.N V A / V V . V X Z P P P P N V A A R U J P P I OX",
"U P V A A J X V Z P P P P R P P P U P J / H P W U P J J J A J _.'.&XI.v I.>XA N A U / A Z X V V A P U P P Z V V J R W R W J P OX",
"P A V A P J V V Z Z J Z J P P A P P P P  XP R R U J J U J J P U J J F ;.,.B N N N P / A Z X X X J W W U P A P P R Q W R J A I +X",
"P A V V V V N V A P V V P U U U J U J U  XA P W Q U J U P V A V P P V A P A V N H R W A V X N N A U U A A A P W W W J A V A J oX",
"A A A J L V N V A J V V U P P P U A A U  XZ L Q W R J R P P U A U U A P Q U P P P ^ R A N A J A A A U P P P P P U A L A V V C .X",
"A A P Q E A N N A J A V V P V P J A V U XXJ P J J U J P P V V N V P P R R U P P J R I J A P U J P P J A W P A A V U A A H C H OX",
"U U A W R L C N V A A V V U A P A A A R  XP J A J J A V V V N V A A P V U U P P P P ^ U P W R U U R V A P P A A U R U U H C J +X",
"A C A R U L J C V P A V N A V U P U L E  XI H J P J A V V A A A U W P A P P A P P I  XR U R U U Z A N V P P A A L L L U A C J +X",
"V A A R U U R A A P P J N U P U W W J R  XR J J P U A P P P J P U P P P P A N V A P / R J J A U A P V X A A V N C L E E J L R #X",
"V A A J L L A A Z P U A P R U P I P J P / R J J A A A A Z A V Z A A P P P V V Z V H  XP Z A A J Z P V V A A A N N C E / L C U @X",
"V A V A L A A A P P P P P A V Z J P V Z W W U U J V V V N N N V J V Z W U V Z P P R / P A J J P P P P N V P A N N C U L J H J @X",
"V V V V J R W E R J J Z R J A V V N V C / ^ R A N N V N V N C L U Z A Q R A A U J ^ ^ J J P J U U R P V N U H V N V C N A J R $X",
"J A P P R / R U J J P P R W P X N N H H / ^ R C V L C N V C L L U P L Q Q W U P Z W ^ R P P J A P J P A A A A V V C J A V A I $X",
"A J R W Q W J H V J P U U R A V N . V C / ^ R L J J J V L E R L U U L A R Q R A H P ^ J P P P J U U P J J J A V N L C H V J E +X",
"A P U P R R H C V X H J U U V N C . C C ( U L U V A J N J / E E U A A V U W P V H J ^ J U R U U W W J J P U H J N H H C Z J J ( ",
"P J A V C J J J H A J U J J V N N N N C / J J L A V V V J L L C H H Z V J W P V C J ^ U R R E E Q Q J A J J H L H C J U J A J .X",
"P P V A J H L U V H J J J U A N V V V C / U U J J J A A H C L V Z Z C V A J U A I U ^ E P I R U U P P A J H J R U R U I J U E +X",
"J J Z Z H L L L V C J J J U U A J V C N ^ ^ K C H R P U C L R J A A V H J J J U U R I H J C H J H V A J U U R R W W ^ J J J ^ #X",
". o . . N K C H N N H N C P A V H   V . K K H V   Z J R J H J H V V V o Z V V P H H H . . o . . N X V J J K H I J U I H H V J ( "
};
