/* XPM */
static char *result[] = {
/* columns rows colors chars-per-pixel */
"64 64 177 2 ",
"   c #3F2416",
".  c #45291A",
"X  c #4C331E",
"o  c #55311C",
"O  c #503725",
"+  c #5C3D24",
"@  c #5E4026",
"#  c #554131",
"$  c #5B4634",
"%  c #5D4B35",
"&  c #5E5534",
"*  c #5E543A",
"=  c #62442B",
"-  c #69472B",
";  c #6D4B2E",
":  c #674930",
">  c #6D4D31",
",  c #664F3A",
"<  c #714E31",
"1  c #63543C",
"2  c #6B533D",
"3  c #645A3E",
"4  c #695B3E",
"5  c #745333",
"6  c #7A5534",
"7  c #65623D",
"8  c #6A683C",
"9  c #776134",
"0  c #716B3D",
"q  c #786F3F",
"w  c #6E5641",
"e  c #655B41",
"r  c #6C5B43",
"t  c #6E5C48",
"y  c #745C44",
"u  c #7C5E44",
"i  c #755F4A",
"p  c #676345",
"a  c #6C6342",
"s  c #6B6E44",
"d  c #7F6145",
"f  c #75604B",
"g  c #7D6249",
"h  c #697241",
"j  c #6B7748",
"k  c #757544",
"l  c #7A7442",
"z  c #747847",
"x  c #7D7B44",
"c  c #797E4A",
"v  c #7D6750",
"b  c #93662D",
"n  c #966F36",
"m  c #986C35",
"M  c #85753D",
"N  c #8C753D",
"B  c #96733B",
"V  c #927C3F",
"C  c #AF7632",
"Z  c #A07B3B",
"A  c #AB7D3B",
"S  c #B77F3A",
"D  c #BA7D39",
"F  c #816246",
"G  c #84664A",
"H  c #88674C",
"J  c #86684D",
"K  c #896A4E",
"L  c #817B45",
"P  c #847D49",
"I  c #876A51",
"U  c #8C6D52",
"Y  c #8B6F59",
"T  c #906E53",
"R  c #8E7055",
"E  c #8E7259",
"W  c #917256",
"Q  c #937559",
"!  c #98765B",
"~  c #96795D",
"^  c #997A5E",
"/  c #967B61",
"(  c #9A7D63",
")  c #9A7E69",
"_  c #76824B",
"`  c #7B834C",
"'  c #7E8C4C",
"]  c #778452",
"[  c #798751",
"{  c #7F8E53",
"}  c #B1823B",
"|  c #BB853C",
" . c #C4863F",
".. c #C58A3E",
"X. c #86834C",
"o. c #88844E",
"O. c #828D4E",
"+. c #9E8647",
"@. c #938E4C",
"#. c #9F8E48",
"$. c #83924D",
"%. c #8F934D",
"&. c #9D904F",
"*. c #888751",
"=. c #818D52",
"-. c #898F52",
";. c #859354",
":. c #8D9653",
">. c #8E9B55",
",. c #859259",
"<. c #8A9658",
"1. c #8E9C5A",
"2. c #9C9754",
"3. c #919D56",
"4. c #919E5B",
"5. c #A68B45",
"6. c #AA8C46",
"7. c #A48E49",
"8. c #AD8B48",
"9. c #B68742",
"0. c #B58F45",
"q. c #BB8F43",
"w. c #AE9047",
"e. c #A3954D",
"r. c #AB924A",
"t. c #B49146",
"y. c #BF9244",
"u. c #B3914A",
"i. c #8FA059",
"p. c #93A155",
"a. c #9DA257",
"s. c #94A45B",
"d. c #9AA55B",
"f. c #95A95C",
"g. c #9BAC5D",
"h. c #9EB15E",
"j. c #A0A055",
"k. c #A1AE5E",
"l. c #A2B25E",
"z. c #9C8166",
"x. c #9E826B",
"c. c #A0856D",
"v. c #A3896F",
"b. c #A28671",
"n. c #A68A75",
"m. c #A88D77",
"M. c #AA8E79",
"N. c #AE927D",
"B. c #96A362",
"V. c #99A661",
"C. c #9CAB62",
"Z. c #9FB261",
"A. c #A2AE61",
"S. c #A1AC6A",
"D. c #A5B562",
"F. c #A9B765",
"G. c #A7B865",
"H. c #A9B866",
"J. c #ABB969",
"K. c #C18E43",
"L. c #CC8E42",
"P. c #D28C42",
"I. c #C69142",
"U. c #CD9343",
"Y. c #D59345",
"T. c #D89646",
"R. c #D19945",
"E. c #DA9B46",
"W. c #DD9D48",
"Q. c #E09F4A",
"!. c #DDA24A",
"~. c #E2A34C",
"^. c #E6A94E",
"/. c #E8AC4F",
"(. c #E7AA50",
"). c #E9AD51",
"_. c #EDB453",
/* pixels */
"~ Q W W z.^ ^ ! ~ Q Q W U K U W K U U K ~ Q E ~ R R R U U K U R Q R U Q Q ^ R U Q c.R Q W W W W Q ~ ~ Q ! Q R U R W W Q W T U c.",
"R W K U W Q Q Q U U U U U W W Q Q R R ~ z.U R U R R U J G H J J T K K K K K R K W ~ E ~ W R K W R R R Q Q W R J J U U J F K G c.",
"J U U W W J K W K U U K R ^ ^ Q ~ ~ Q W z.U J J R ~ U J J H H H U K K H F G K R K E E U Q W R R R U K K R R U G F H F K F H U b.",
"J U K J K K F K U W W K U Q ^ W Q Q W R ~ J J J U Q R J H T W ! ! z.T M K J J R R ~ E W ~ ~ W R R K K U W Q W R F q F 6 u G G ) ",
"W U J J K U F G J R R U R Q Q K R R R R / R K K W z.W U U U R W W ! Q G R K U W W z.E W ~ W U U U U U K R Q W R G F G G G G U M.",
"U U G J R K G G J U H H U R U U R R R R z.W K K W W z.Q U U W T T K G G K K J J Q z.~ Q W W R K W R U U W W U G F F G G F F U b.",
"R K J F G G F J K R G G R Q W R U R R R z.R R R U U Q z.R H R T H F F F F F F K W z.Q W ^ ( W U W U K U J R R J U U U G H U W M.",
"K K R R W J F F K U K G U R R T R I K R z.R R R J G W Q K H R J G F F G G K K W W ( R K ! ~ Q R Q R R R J R Q U T ! Q W U Y Q M.",
"T H T ! ! K F F K U K G G U J U K K K W c.J G K G G U R R K K J G H K K J J U U U z.R U U R R U W K K G F F K R W W W R U U R b.",
"U T T ! ! W H G G K G M G R K R K K W Q z.K K K F J U R R R R U K K U W J U R U U Q ~ U K U R J G G G G J U K R K W R U W R R b.",
"K H H ! W T U K J R U G G J J W W Q T Q z.R R K R R R U R Q R U K K K G U U R U U Q z.K K U U K G K K K K W W R U R R J I U U m.",
"K H H W W W W K K W R U G W W W Q ~ W W z.R R R U R R J R U U G F G G G J U U U K W z.U U R W K U U T K K W R R U U K G K I I x.",
"H K K U U U K K J R W K R R R U R R R R ~ R K U R R Q Q R U G G G G U R U R R R U W z.U U U G K K K K G G K G U Q U K G K G H x.",
"F G J H U T W K R R W R R K K K U R d K ~ Q W R R R ~ R J Q W K U U R Q U Q Q ! R U z.W W K K F G F d F K W K J Q W K G U W W M.",
"G J J J U ~ ~ ~ W R K K W R K d G d G K z.R K G H K R K K U W J U K R W U R ^ ! R E z.Q J l F G F F F K U W K U ^ Q U I T U W n.",
"U U U W Q z.W R R K W W ~ ~ R F d d J U z.I F F F G F F J U W W U U R W U U Q Q W ~ z.~ K J U K G K K K T W U T Q ( ^ ~ U I W M.",
"U U Q Q z.Q U J J J U R W R K G F d G U ( T K F G G F G I W Q W U U U U U R R ~ E R x.E R U U U G W Q ! Q W R W K Q ! Q K K R x.",
"U R R U R Q U K J F K R R R J F J u G G ) K G F u F F F U W ^ Q U K I R R W Q Q R U / U R J J I G K ! ! W W K K G R ~ U G K I ( ",
"R U J J H U R U J J U E R U J d F d d G ( U K d G G K F F I T T U J I R R U E Q R R E U R J G G K K T K K J K G J R W W J J U x.",
"R R J H U K R W G U U U U U G u d d g g Y u F u u G G G F G U U I J J J I J J U U I E I G G I G J K H T G K K G G K R R U E U b.",
"E E R I R Q ! Q U U E R g t 3 3 3 3 3 1 r * * e 3 1 e 1 * * e e e e e e e e e 1 1 * p r e 1 e r r a U ~ E R R Y U E W E ~ ~ / x.",
"R ( ~ ~ *.( / ( z.( ( v 7 -.d.s.3.d.a.a.2.&.2.A.H.H.J.J.J.F.J.S.H.G.G.D.G.D.S.2.+.e.j.a.a.a.d.d.2.k a z./ / E R E / Q W E Q E c.",
"G ~ W R U Q U W W Q Q , N 6.r.7.6.u.u.0.K.U.r.d.H.H.J.J.F.F.J.B.H.G.F.F.H.H.D.#.L.Y.K.q.0.u.u.u.8.T : K U U U R R Q W Q I ~ ~ n.",
"J U Q Q R R U U J U U % A Y.~.!.~.^.^.(.(.!.r.d.D.D.H.F.J.G.G.B.H.D.J.J.H.G.V.7.R.(.(.(.(.(.^.^.E.A & K U U U Q ~ Q Q ~ ~ W Y c.",
"G W ~ Q W W W K K R Q 3 N U.~././._._._._.~.t.>.D.D.H.H.G.G.G.B.G.F.H.H.H.G.3.w.~./._._._._./.~.U.V 3 U U R R Q ( W W Q Q R R n.",
"J W ~ W K R U R K K W 7 q | !./._._._._._.^.t.%.D.G.H.J.G.G.S.B.H.G.H.H.H.G.:.t.^./._._._._._.~.| c 7 U R U R Q W U U W R U R n.",
"U Q Q W K U W R I i 4 s _ Z T.^._._._._._.(.y.@.D.F.H.J.J.G.G.B.H.F.H.F.D.D.@.y.^._._._._._./.W.} _ ` a 1 y I R T U U R R W W n.",
"J W ^ ^ W R R f 3 X.3.d.p.N ..~._._._._._.).R.7.s.D.H.D.J.G.G.1.G.F.H.H.D.g.7.../._._._._._.^...M f.A.d.' s 1 G W R U R R R W n.",
"G T ^ ~ Q W g 7 =.<.d.H.D.X...Q.).)._./.)./.~.6.:.A.D.F.F.G.J.1.D.G.D.D.D.>.5.E.^././././.^.~.I.$.G.h.p.f.C.=.1 J R U U I R ~ n.",
"J T U T W K 2 ' k.D.p.A.H.>.} W.~.~.~.~.Q.Q.Q.9.@.d.g.l.l.l.Z.1.l.l.l.k.d.@.} E.W.Q.Q.Q.~.~.W.A d.l.d.f.Z.D.1.1 g U I I J U / M.",
"U K K R U H , O.l.l.G.s.l.D.Z T.W.T.Y...P. .D m x =.;.;.i.C.h.1.g.3.;.O.O.q b C C D L.P.P.T.Y.Z l.g.i.D.D.D.1.* g R U U U W ~ M.",
"K U U W W K y 8 k.l.G.p.D.A.n S B N x X.O.:.:.3.d.d.d.s.>.<.=.j $.3.d.k.A.k.d.p.3.:.O.c L M n 9 l.g.p.l.D.s.h 2 F W T U U Q W b.",
"R K U W R K R y 7 d.D.i.f.;.h 1.A.D.G.F.F.D.h.g.k.l.l.l.A.C.V.{ D.k.A.D.A.D.k.A.A.d.A.A.A.A.C.,.1.4.3.D.g.p , U W W Q ~ R W ~ M.",
"R K R K J J K J 2 _ l.f._ { p.f.V.V.C.C.V.B.1.>.1.>.1.i.4.s.V.{ s.4.1.1.1.1.4.1.1.3.3.B.B.V.V.B.4.,.d.D.1.1 K W R R W W U U U x.",
"Q W R R G G J G 2 8 l.D.[ p.h.Z.D.C.Z.Z.Z.h.h.h.g.f.f.h.g.h.D.1.D.C.g.h.g.h.g.g.g.g.g.g.Z.Z.D.D.Z.1.d.G.=.2 R K K J R R G J U ) ",
"~ Q K d d G d F 6 8 Z.G.' i.s.p.s.f.f.f.s.f.f.s.p.s.s.s.i.s.C.{ f.s.s.s.s.s.d.f.f.f.f.f.s.s.s.f.4.,.f.G.` 4 W W K F F d G J R b.",
"~ Q J K U K G J G a C.H.] =.{ ' <.i.1.<.:.<.<.;.;.;.<.;.=.;.<.` ;.;.;.;.' { ;.' $.O.;.,.=.;.,.=.{ ] g.l._ a W ^ T G F u G K W M.",
"~ W R K U U G W E a g.G.=.,.>.>.p.s.f.s.p.f.p.p.p.s.i.p.3.3.3.s.>.3.p.p.>.>.>.>.>.>.3.3.3.>.3.1.>.{ p.l.x y W W K G F F G J W n.",
"K R W J J K G U ~ a g.H.,.D.l.D.G.G.D.G.l.H.l.H.G.l.G.D.D.l.D.D.D.G.l.H.l.G.G.G.l.F.D.D.F.D.D.D.g.$.p.l.z r U W H F G u G G Q m.",
"K K R K G G J U U 4 g.D.{ g.D.D.D.D.G.D.G.H.H.l.G.G.D.G.G.D.G.G.D.G.G.H.F.G.F.l.G.G.F.D.G.D.D.D.f.' p.l.z y U R K F G F F G T c.",
"R W U R K U R J G 4 f.l.' d.D.D.G.l.H.D.G.D.G.l.G.l.G.G.l.G.D.D.G.l.G.l.l.D.D.D.D.D.D.D.D.D.D.D.f.' p.D.z r K R U F G G J J U b.",
"Q W K K Q R E K R 1 k _ 7 k X.O.*.*.o.o.o.o.o.*.o.o.X.o.o.X.X.o.X.X.X.X.X.X.X.X.P X.P L L L x l 0 & 8 k * y U W W K I G J G G x.",
"x.z.z.z.v.c.c.c.c.y + + X @ : - ; ; < < < 5 5 5 6 6 6 6 6 F 6 6 6 6 6 6 6 6 6 6 6 5 5 > < - = = @ X X o $ E Q ( x.z.( ~ / ( x.M.",
"R W K K Q ~ ~ W K y O o . % 2 w 2 2 1 w f 1 y 2 2 2 2 4 2 2 6 y u 2 2 2 2 2 2 2 2 y i 2 2 2 2 , 4 #   . $ U G W U K U K G U ~ M.",
"K U U R R K K W U K 4 1 g W ~ W E Q Q R ^ I R R W U U U K K K U U K F F K G K d J E ~ G F F G u G K g g J J K U R U J J G U ~ M.",
"G U K K U K G K U R R K R Q z.R Q Q Q R ~ U R Q Q Q U W U K U Q ~ W U F d d 6 F G I ( G G u H F J R R R R F G K K W Q U R R U b.",
"W U K J U U d G J R U R R W W R R W R K z.I Q Q W R U U U K K W Q Q R F d F J F J Q / K G F F F K R W R U J J J U Q ^ Q ^ U Y b.",
"U U G K U K G G K K U K U R U K R R R R z.R Q Q W U K W W U U W W K K F d G F F F R / U K u F F U ~ ~ W R U K R Q ^ ~ W U I R m.",
"W U G F H G M G K U G G U Q R W W W U W z.K W ~ ! W U W R J K J R R K K U K J G I Q ~ U G d F F K R Q K U U W Q Q z.U H J J U c.",
"K K U U W G F F K U J G W R R R K K K W z.J T ^ ~ Q R W R U R K W R K R ! W R R R / E J F K U K K K R R U R R U R U T H G G K c.",
"K K R ^ Q H F F K K K G J R J U K R K W c.U U W U W R R R J G F J U R W ~ W R K R Q R U K W W K U W U K Q R J G J U U U K J K c.",
"W U U Q ! U H F H U K F F R U R K K H Q z.R K K K U J G G G F G K K R J W R R R R R ( W R ~ ~ W Q W J K R W K U R R W Q K J R n.",
"K H K Q Q U U H J U K J F J J W R W T Q x.W U U W R K F K K K K R Q R U R R K R U E z.~ T Q W W K K F J U U J K T T T W K H U n.",
"J K H Q U Q Q U K W R K G R R W ~ ~ U Q z.Q U U W R K R R K K R W R R U R K F J K R ( W U U K W K U G d K U J F H T ! ! K T Q M.",
"G H K U U T H H K R W K R W W R E W U R / Q U K K K K K K K J J K K R R R G G J G R z.R J K K U K U J G K U J F F K ! ( T H W m.",
"G H K K U T U H U R R R R J J J U R G J ~ ~ W W K J F J F F F J U K K ~ R G J R R Q / R U K U R U R U G J U K F F H Q T U H U m.",
"G J G J U ! ^ ~ W R U K Q U K G G F G I / / Q K F F F F G F H T R K U ^ Q U K U U ~ / U R R U W W Q R J F U I J F F K F K U Q N.",
"U K K R Q / Q W K U R R Q ~ R d F u G K ) / Q H H U K G G H T T W U U ! ^ ! Q U K ~ / W R R U U U U R J K U J G G K U K F K W N.",
"K U Q ~ ^ Q T I K U R R W W K G G F G K ( ( W U U K U G T ! Q T W U W K Q ^ Q K I W / U U W U K W W R U U R J G F U K K G U ~ n.",
"K R W W Q Q I G G d K U W W J F G u H H ( ! T W J K U F T ^ ! ! W K K H W ! R G I U ~ U W Q Q W ! ~ U U R W U U F H U G J U U ) ",
"R K K J H T U U I I U T K R J F F F F H ( Y K U K J F J U T T H K K J J R Q R J G Y / Q Q ~ ~ Q ^ ^ R K U U I T I J U W R K T c.",
"R R J K K K T W G U U U U W K F H G G H ( T W U K U K K K H T G J J G J U U R U U W / ! U W Q Q R R R K U I U W W Q W Y I W Q n.",
"R R J J K Y T Y G H U U U W T K I F H F / / T U I Q R W I T W U K J J J R U U R Y ~ E H I J J U U G K R T W Q Q ^ ^ / U U U ^ m.",
"u g 6 u F T K I F u U G G U K G H u F F Y Y K F y G U ~ U I U U G G g d J G F R I U I u u G u u d g G K Y U U W U Y E I I I U ( "
};
