/* XPM */
static char *result[] = {
/* columns rows colors chars-per-pixel */
"64 64 32 1 ",
"  c #775940",
". c #7C5E43",
"X c #7F6145",
"o c #7F6148",
"O c #816246",
"+ c #84664A",
"@ c #88674C",
"# c #87684D",
"$ c #896A4E",
"% c #876A51",
"& c #8C6D52",
"* c #8B6F59",
"= c #906E53",
"- c #8E7055",
"; c #8E7359",
": c #917256",
"> c #93755A",
", c #98765B",
"< c #96795D",
"1 c #997A5E",
"2 c #967B61",
"3 c #9A7D63",
"4 c #9A7E69",
"5 c #9C8166",
"6 c #9E826A",
"7 c #A0846C",
"8 c #A3896F",
"9 c #A28671",
"0 c #A68A75",
"q c #A88D77",
"w c #AA8E79",
"e c #AE927D",
/* pixels */
"<>::511,<<>-=#=-$$-#::5-&-:&#$==::=,:1$-:5:::-:::5:<<>-&->>::--5",
"-:$&:>>>=$=$--->:--55&-&-&###@##:##&$&&&&55-:-&:---:>>&+###+###8",
"#&&::##:$&&#&<5:5:5:5###&--##$$$$==#O#$&#::&5:---$#$--$#O#O+O#-8",
"#&$#$#O&=-:&=>5-:--$5###&5-##=::,1&O$##:$5:-:::--$&&:<--OOOXXOO5",
":&##$-O+#-&-->-$&:-#5$$#:5:$-$:::::#$$$::5::>:&&-&$$->:-+OO+O#-8",
"&&+#&$#O#&$#-&-&$:-55:$&::51&-:==$##$-##>55->:&$----::&#OO+OOO&8",
"-$#O++O#$-O+->---:$:55&-&&::-#:-$OXXOXO$-5::55:&:-$$#-:$-&#+#&58",
"$$--:#OO$&$O=--:&&$$5#:-##:5$#&#OOX###&:-5:-::<-:---#-:$&5&5&#58",
"=@=55$OO$$&+#&#&$&$=5$##+#$:-#$##$$$##$$-1:-&--&-&$XO##:=5:-&$-8",
"==@,:=@++&#OO-&-&=&>5$$#X$&---:$$$==$--&$11-$&-##+@@+$$-+$:$:-58",
"@@@,===$#&&+O$+:=:$58:&&&-:$-:5+$$$O$--$$<5#&&&&O#$$$5:-$--$$&#8",
"@@$::=:&$>:$+::::,=:5&&:&::#:$$+XO###&-$$:5$$-:$-&$$$#::&&$+#$$5",
"##$&&=##$-:&&--&5$#-5:&=-:5&:&+O##-----&--5$&$#+$###@#@$5&#+$X+5",
"O@##$$-$---&:&$#&&O#5:-=-:5&$::$&&-:-:,1-&5::$$O#OXX$:##::$#&558",
"####$555:&$$:&$O+X+#5#&+#$##$&:#$$-:&-11-:5:$OO+XXO#&:$$5=$$-==8",
"$$&::5&-&&:::5-OXX##5#OXO+XX$$::-$-:&&:::<55$$&$@#&&&:=$=55:&$:q",
"$::555OO##&:::$+OX#&5-#O+OOO-5==$&&&&&:>;-6--&&-+-5===--&55=+$&8",
"$:5$#-&$#O$--:#X#XO#5++OXXXO$$5=&$&:-:><--<&-##$O&5:$5$$O$5&O$#5",
":$#+$$-&##$:$&#XOXX#5&#X+@+OX$==&#&&-&:>--;$-$#o@=$$####O&5=$$$5",
"::#$$@@5+&&#&:$+#+##5+#+@&$$$&5=>---:-->>-5:&&-$$@@=#####$$$&:-8",
"&&&#--5&$&5#&55-=+&O5&-55-5&&#-555;;;:;;<:6<;$<<5-5--&##%-;:55:6",
"$55555555555:::555555&&&$5&55-55&->55<;;<565<<665555555&;5::&&:6",
"#5&&+5#&:>:5$#$$@OO#5$+#++O#$$#$$#:&$$$#;<5:#--<5=&&#&&#->->&>58",
"+$&5&-&##$$:$O+#O@.X5-OXOOXX5&5&#$&-%###$<<%---$O=&$#&&55>>5>::6",
"+:5=5$&&$&5::&OXX.X+::++.#X$=--$X##&::&--;;-+#$$X$&-&-&>5&>>>-&q",
"#:5-&&&&$$:::-OO@@O@5&$+XOO$=&-&###&5:-5->5-$+$-O##--&->:$$>&&:8",
"$=-=&&:&&-::$$XX@XXX5&&#XOX=5&$5&--:55-&$>2&+#-$#+#$$#&--$$-&>>0",
"$$55==:&$$#:-$$$$##&5-&OOOO$$5+$&:5:-&#++-5$$o++X#$&++&>---:-&;q",
"+=55=$5$&-#::$&5:=--5$#O&&$$#5--&&$=$&$++=>#&=-#XO#-#+-----$$->q",
"+=&$=&=&#OO#&:&5::$$5$&&&5&&&+$=-$$$=&&$#:<$$1>=OX$$&++&$&$##&<w",
"&=$@=$++#O+$&:#:-#-&5&5-5=&==+$$-$&::::$$:1=&,,=$O#$#O+-$-#-$><q",
"&$$5=$$+#+#-::&::55$55:$5=5O$O&5=&:,-::+@:1&@,,>#$O#++X++----:>0",
"-#&--#--&$&:=$&&&X#$:&5&&$-$-+O$$+O$=:5@&5>$#>-::-#-:&+-::&5$:58",
"5&&##@&$###$##5$####55$+&$&$&++$$$OO$,5=O5-##&&=###&:&$:-&5-#&&5",
"&$5#+O$OX+#$#$:=#+&:5&-&$&--&-+$-$OX#:@$#-;##$==&#=-&:-$&+&-O#&5",
"=5$OX+XX+$::#:5:&&-&5&---&:-,&+O-$$O+#O@$5;o+#$,5,,&$$:-&+OO+#-8",
"55O+-&O#$===-=5555++5&-&&-&&&&$&$#++$=$+$>5&&-><::&&&::5=+O.#$>q",
"===$$$#:5=:=&&$::-$$5-&-:&&:>-&&:#+X&$##$5;&::<5&+$$&:::$+OXO$:8",
"&&5X@#O&,5,=&$#:5&+$:&-::::5>$&-:#$+#$##&-5&:&>>&#+O$&&:#O#X++<q",
"$$&+@@$@==@$$##&--$$5::-5:-55&$&$$:$#=:=#&5&###$&&$$$:--#OOOX+:7",
"&5&&&$$$#=+$$++$&&&-55-&;::;-&&&&#:5=&&$:55$##$$&-#$&-$-=O++##&9",
"5$#$5$5$$5&$$+++&&--5X###o-$##&:5-::55&&=55$#+$---##&&&::#&##O#6",
"55558555555555:5555-6>555555565555555555555-5>55363222>3652<236w",
"$=@$=5&5&&&&&&&5&-X55#5:-&::::5-:-+O$$#+++5+#OOO&-&&&&+>:#$$#&>w",
"$--=-+$5&&$$+55&-55:5&-::-&&&#$-&$O+#+#X+&<+XOOO#-&-&##&-&###&>w",
"+$$$$$O+$--&$&55----5o&5>>-:$$->5:&XXXXX+&5OO.#O+----X+#&:>&&-;9",
"5+$+&&X++:=&&5-&&:&&5#-::&-&=$&-::&+X++++:5$#XOO$-:--#+#$>1>>&&9",
"&$+$&$++$$&$$$&&&-&-5&-5:&$:&&&::$$OX+XXO-5#$XOX&<<:-&&->1<:-$;q",
"=$#+#OO#$=++=:::::=:5$-<,:$:&#&#--##=$#+&;<$#OOO$::$&&-<><&+##-6",
"$#$$=+O+$&#+----$#$:5#:<<>=>-=-#:>#-<----<<$O$$$$$:-=--&-==#++%6",
"$@:5:$OO$$$+#-$&$:#:6$::&-=--#+++&->::-&&>;&$-:$&:&$:-$##===##&9",
"=$+5,=#O#$$+O:$-$$@>6-$$&=#+++X+#&-#::=--;1:-<<:::#$;:$$::--&#-9",
"&#$,==&##$#+O##--:=>5;&&-=&X#&##:>-#--$-$>5:=>::#$O#$-$$===,#@&0",
"##$:=::&$::&+-::<<=>6>&&--$-&&&&>--&-$O#$;<<-&$-$-+X$$#O@=:,&&,w",
"##@&=&$$#::$-::&;-&-<<&$&#######$#--$##$+-5;$$$&#-++$$#OO$,2=@:0",
"+#$$==$$&-:--###-&+#<<::&++#+XO#&#$<-##$;><-$&$----O$-$OO@,&&$&q",
"+#++$=5::-$#5&$O@OO%32>$+O+OOO$=>#&,>$#-&<2-&-&:;>-+O&$@O+@O$$>e",
"&$&&55&5&&--->-OO.%%31>$#$#++$==:==>5>>&$<2>---&-&-#&&@++@&$+$>e",
"&&5=5$=##$-:::$#O.@@32:&$$$@:,:=:&=&>5>#$-2&&-&$-:-&&&$+O&%$+&<0",
"$&&$5=$#+O$-=-#O@.#@7:=:$$&O=,,,:=##=,&#%*>&:<::,<-&--%&O@&+#%;3",
"-+++#:$&$++5--#XOOOO4&&&$#+#&=&$$$##&,-#@&2,>>>>11-$&&%&%#&:&$&7",
"5$+$$$::+$$-&-&X@O@@3::&$&$$#$=+##+#$&-$&*2>->>>---$%&&,::::&:,0",
"&$$#$=:=+$&$&:&#&+@O>2:%%>&:$=:-$$##&&&>>2;%&##&&+$-::,>112*&&20",
"XX.XO&$$XX&++-$#% +O**#+ @&>&%&%#o+X$X+&#%%..o..oX+$&&%*&;;%##&4"
};
