/* XPM */
static char *result[] = {
/* columns rows colors chars-per-pixel */
"64 64 228 2 ",
"   c #312412",
".  c #3C2A17",
"X  c #342F26",
"o  c #45291A",
"O  c #4C3513",
"+  c #493219",
"@  c #523616",
"#  c #473122",
"$  c #573B24",
"%  c #5B441C",
"&  c #684A16",
"*  c #745115",
"=  c #77541A",
"-  c #5A4326",
";  c #4D4437",
":  c #594735",
">  c #5D5537",
",  c #68472C",
"<  c #72592C",
"1  c #6A4C32",
"2  c #714E31",
"3  c #64543C",
"4  c #6B543D",
"5  c #645B3E",
"6  c #6A5C3D",
"7  c #745333",
"8  c #795737",
"9  c #65623D",
"0  c #6A643D",
"q  c #776539",
"w  c #5F5751",
"e  c #6E5641",
"r  c #665C41",
"t  c #6C5B43",
"y  c #685A46",
"u  c #745C44",
"i  c #7B5D44",
"p  c #755F4A",
"a  c #6B6844",
"s  c #7E6145",
"d  c #7D6249",
"f  c #78654D",
"g  c #757544",
"h  c #7D7B44",
"j  c #777A48",
"k  c #7A6A5A",
"l  c #717051",
"z  c #7F7061",
"x  c #895E13",
"c  c #8C6116",
"v  c #8B631B",
"b  c #926514",
"n  c #9A6B17",
"m  c #9C6C16",
"M  c #A16E15",
"N  c #AD7917",
"B  c #A57318",
"V  c #B37B16",
"C  c #BB7F16",
"Z  c #B47D19",
"A  c #896627",
"S  c #966F2F",
"D  c #816637",
"F  c #89743C",
"G  c #987638",
"H  c #A77926",
"J  c #A17C3C",
"K  c #A87C38",
"L  c #B97E3A",
"P  c #816246",
"I  c #8A6E44",
"U  c #84664A",
"Y  c #88674C",
"T  c #86684D",
"R  c #896A4E",
"E  c #857B46",
"W  c #977A4E",
"Q  c #876A51",
"!  c #8C6D52",
"~  c #906E53",
"^  c #8E7055",
"/  c #897456",
"(  c #8E7359",
")  c #917256",
"_  c #93755A",
"`  c #98765B",
"'  c #96795D",
"]  c #997A5E",
"[  c #897765",
"{  c #8D7B69",
"}  c #907761",
"|  c #967B62",
" . c #9A7D63",
".. c #927D6A",
"X. c #9A7E69",
"o. c #76824B",
"O. c #7C834C",
"+. c #7E8C4B",
"@. c #788652",
"#. c #BD8216",
"$. c #B7801C",
"%. c #BB8119",
"&. c #B68429",
"*. c #B18A39",
"=. c #B78839",
"-. c #C28516",
";. c #C48717",
":. c #CC8C16",
">. c #C6891A",
",. c #CD8D18",
"<. c #D18F16",
"1. c #D08F19",
"2. c #D49116",
"3. c #DA9416",
"4. c #DE9817",
"5. c #D39219",
"6. c #DB9619",
"7. c #E39B17",
"8. c #EA9F17",
"9. c #E39C19",
"0. c #ECA117",
"q. c #ECA118",
"w. c #F4A616",
"e. c #F6A816",
"r. c #FBAA17",
"t. c #F4A618",
"y. c #F5A91B",
"u. c #FBAA18",
"i. c #D4992B",
"p. c #C78C31",
"a. c #C89D32",
"s. c #E09E27",
"d. c #CBA437",
"f. c #D5AC37",
"g. c #85844D",
"h. c #88854E",
"j. c #828D4D",
"k. c #988D4A",
"l. c #83924D",
"z. c #9D904F",
"x. c #818C53",
"c. c #8A8953",
"v. c #9F835B",
"b. c #859254",
"n. c #8C9654",
"m. c #8D9B55",
"M. c #859259",
"N. c #8A9659",
"B. c #8E9C5A",
"V. c #919D56",
"C. c #929E5A",
"Z. c #A98A49",
"A. c #B88B44",
"S. c #AB9448",
"D. c #B99247",
"F. c #B3914A",
"G. c #A98959",
"H. c #A1985A",
"J. c #B79655",
"K. c #8FA059",
"L. c #96A357",
"P. c #94A45B",
"I. c #9BA55B",
"U. c #9BAB5D",
"Y. c #9EB15E",
"T. c #BFAE4F",
"R. c #A0A055",
"E. c #A1AE5E",
"W. c #A2B35E",
"Q. c #9C8166",
"!. c #96826D",
"~. c #9D826B",
"^. c #9F896E",
"/. c #99936D",
"(. c #958474",
"). c #9C8672",
"_. c #9E8975",
"`. c #A0856D",
"'. c #A2896D",
"]. c #A8996D",
"[. c #A28671",
"{. c #A48A74",
"}. c #A88D77",
"|. c #A18C79",
" X c #AA8E79",
".X c #AB947D",
"XX c #98A565",
"oX c #9CAB63",
"OX c #9FB261",
"+X c #9FA474",
"@X c #A2AE62",
"#X c #A6A768",
"$X c #B4A468",
"%X c #A5B562",
"&X c #A9B764",
"*X c #A8B866",
"=X c #A9AA74",
"-X c #ADB978",
";X c #B6B575",
":X c #C88E43",
">X c #D28C42",
",X c #CB9443",
"<X c #D59345",
"1X c #D79847",
"2X c #DD9D48",
"3X c #E09F4A",
"4X c #DAA249",
"5X c #D8A559",
"6X c #E2A34C",
"7X c #E6AA4E",
"8X c #E8AC4F",
"9X c #E7AA51",
"0X c #E9AD51",
"qX c #EDB453",
"wX c #EBB45B",
"eX c #C29C62",
"rX c #C6AD74",
"tX c #E3B167",
"yX c #DEC049",
"uX c #D5D16C",
"iX c #E8E975",
"pX c #FAF87B",
"aX c #A89D88",
"sX c #B7A88E",
"dX c #C9AE94",
"fX c #D5ADA9",
"gX c #DBC293",
"hX c #D4CAB7",
/* pixels */
"' _ ) ) Q.] v.' ` ` _ ) ! R ! ) ! R ! ! ' _ _ _ ( ^ ) ! R ! ! ) _ ) ^ _ ) _ ^ ^ _ Q._ _ ) ( ^ ) _ _ ] _ ` _ ! R ) _ _ _ ) ~ R '.",
"^ ) R ! ) _ _ ) ! ! ! R ^ ^ ) ) _ ) ^ _ Q.^ / R ^ ! R T U Y R U ~ R R R R ^ ! R ) ] ( _ ) ) ! _ ^ ^ ^ ) _ _ ! I T R R U P T Y `.",
"T ! ! ) ) T T ) ! ! ! R ^ ] ] _ _ ] _ ) Q.Q T T ^ ' ^ T U R Y Y Y ) ! R P U R ^ R _ ( ! _ _ ! ! ^ ! T R ! ) R U P T U U i Y ! [.",
"T ^ R T R T P ! R ^ ) ! ^ _  .) _ _ _ ^ ' T R T ! _ ^ I R ~ ) _ ` ] ! P R T T ) ^ _ ( ) ] _ _ ^ ^ R R ^ ^ ] ( ^ P s s s P U Y X.",
") R U R R ^ P U T ) R ^ ^ ) ) R ! ( ^ R Q.^ R R _ ' ' ! ! ! ) ) _ ` ` T ^ R R ) ) `.( ) _ ) ^ R ! ! R R ^ _ ) ^ U i U Y U U !  X",
"! ! U R ! R T P T R R T ! ^ ) ! ^ ^ ^ ) Q.) R R _ _ v.` ! ! ) ~ ~ T T P T ^ T T _ Q._ _ _ ) ^ R ) / ! ^ ) ) ^ T U s U P i P ! [.",
") R R P U U P T R ^ P T ^ ) ) ) ! ^ ^ ^ | ) R ) ! ! ) ] ~ T ) ! T P P P P P P T ) Q.( ^ ` Q.) ^ ) ^ R R T ( ^ T ! ! ! Y ! ! _ }.",
"T R ! ^ ) T P P T ^ R P ^ ^ ^ ~ ^ R R ^ Q.^ ( ^ T T ( _ ! Y ! Y P P P T P T R ) ) ] ( ~ ` _ _ ^ W ^ ^ ^ R ^ ) R ! ] ` ! ! ! _  X",
"~ Y ~ ] ` R P P R R R T T ! T ! R ! R ) `.T U R U U ^ ( ^ T R T U T T R T T ! ! ! | _ ! ! ^ ^ R ^ ^ R P P P R ^ ) ) ) ^ ^ ! ^ [.",
"~ ~ ~ ` ` ^ Y P T R T s U ^ R ^ R ! ! _ Q.R R T d R R Q ^ ^ ) ^ ~ R _ _ ! ! ^ ! Q ' ' ! R ^ ^ T P T T P T ! R ^ R ) ^ ! ^ ^ ^ [.",
"R U Y ` ) ~ ~ R T ^ ! T U T T ) ) _ ~ _ Q.^ ^ ! ! ^ | ' ' _ ) ! _ '.~.{ X.( ^ ! ! '  .! R ^ ^ R P R R R R ) ) ^ ! ! ^ T T ! ! }.",
"R Y Y ) ~ ) ) ! R ) ) R U ) ) ) _ ` ~ _ Q.^ ^ ^ ^ ).{ ' ^.{.| Q.G.A * @ r !.! R ! _ | ! R ^ ^ R ^ ^ ~ R R ) ^ ^ ^ ! R U Y ! Q ~.",
"T T R ^ ! ) T T I ^ _ ! ! ^ ^ ! ) ^ ! ^ ' ( ! ! ] ; O * v K G.D.,.c $.m q )._ _ ! ^  .^ ! R T T R T T I U R T ! _ ! Y U T Y Q ~.",
"P U T T ^ ! ) R ^ ^ ^ ^ ^ R R R ! ! P T } _ ^ ! Q.O m #.Z $.5.2.$.%.4.4.Z._._._._ ! Q._ ) ! R P T P i s T ~ R T _ _ T U ! ) ) }.",
"T T T T ! _ _ ] ( ^ R T _ ^ R s P P U R  .( ! ( / a >.q.;.C M b ,.q.<.#.v.^.(.(.!.) Q._ T U s U P s U Y ~ ) R ! ' ' ! ! ! ! ) }.",
"R R ! ) ' v._ ( R R ) ) _ ] ! U P s T ! Q.! ! { [ !.$.>.7.t.6.C 0.r.0.5.A ^ (.(.)._ ~._ R T ! R U Y ! ! ~ ) ! ! _  .| ` ! Q ) }.",
"R ^ _ ] ] ] R T T T ! ) ) ) R U P P U !  .! !.k [ z A 2.e.r.e.-.r.u.u.t.V % p [.' ! ~.! ! Q ! ! U ! _ ` _ ~ ! ~ R _ ] _ R R ! `.",
"R ) ^ R ) _ ! T T P R ^ ^ ^ T s U i U Y  .! ..} { . n e.u.u.r.%.t.u.u.u.3.C ,.G.~.^ } ! _ Y Y Q U R ] ` _ ) ! Y T ^ _ ! T T Q X.",
") R R T T ! ^ ^ T T ! ) ! ! R s P P s U  .! Y Y ; @ V r.u.u.r.C w.u.u.u.8.2.8.C [ ) ( ! ! ! U U U ! ~ ! R T T U U ! _ ) T T ! X.",
"^ ) R R R R ^ ) U ! ! ! ! ! U i s s s d ( d d { N ;.C u.u.u.r.-.e.u.u.u.u.5.7.M + (.( ! U f Q U Y Y Y ~ Y Q T Y T R ^ ^ ! ) ! {.",
"( ^ / ! ^ ' ' / ! ! ( ^ f p r r 5 3 5 3 y > y r :.8.-.u.u.r.r.-.w.u.r.r.t.5.7.1.b f a r 6 3 r a y f Q | ( ^ / ! ! ( ( ( ' ' } ).",
"!  .' ' ] ] |  .Q. .Q.f 9 c.C.L.V.I.I.I.z.z.+X- m 0.-.u.u.r.r.-.t.u.r.u.9.1.8.u.8.v #XR.V.I.I.R.V.g f |  .| _ / ( | _ ( ( ) ) `.",
"T ` _ ^ ! _ ^ ^ ) _ ` 3 F Z.Z.S.Z.F.F.A.D.,X].n 2.w.;.4.0.0.8.V %.>.4X5XD.1.r.r.C O eXD.F.F.F.F.Z.F 1 ! ! ! ^ ^ ^ _ ) _ ! ` ` {.",
"T ! ) ( ^ ^ ! ! R R ~ : K <X3X6X6X7X9X9X9X4X$X&.8.e.7.A.rXgXdX} k sXhXsXa.0.r.r.b   tX8X9X9X9X6X1XL : Q ! R R _ ] _ _ ` _ ) ^ [.",
"T ) ` _ ) ^ ) ! R ! _ 5 F ,X6X9X8XqXqXqXqX6XJ.< = 0.y.s.S.=XaXsXfXaXuX$X5.y.r.e.<.< qXqXqXqX0X6X,XG 5 ! ! ^ ! _  .) ) _ _ ^ ^ {.",
"U _ ' ( ! ! ! ! ! R ^ 6 h =.3X8XqXqXqXqXqX8XD.l O 2.r.e.=.uXiX$X` uXiXuXd.y.r.q.N rXqXqXqXqXqX6XD.o.6 ! ^ ! ^ _ ) ! ! ) ^ ! ) {.",
"! _ _ ) ! ! ) ) ! u r a o.G 1X9XqXqXqXqXqX8XD./.% w.r.w.d.iXiX*.q.S.pXuXd.y.m O U wXqXqXqXqX0X1XJ O.O.a r e Q ^ ! ! R ^ ! ) ) {.",
"T ) ] ] ) ! ^ u 5 g.C.U.C.F :X6X8XqXqXqXqX8X1XZ.-XA v #.i.T.yXy.u.y.f.d.4.t.M ] wXqXqX0XqX0X7X>XF U.@XI.x.a > Q ) ) ^ ^ ) ^ ) {.",
"P ) ] ` _ ) f a +.N.I.&X%Xg.p.2X8XqX0X0X0X0X3XZ.m.-Xl G 4.4.4.5.8.r.r.7.V $.= rX9X7X7X8X8X8X3X,Xj.W.W.P.U.U.+.r Q ! ! ! ! ^ _ }.",
"T ~ ! ^ ^ ! t +.@X%XL.oX&Xm.L 3X6X6X6X9X3X3X3XA.c.P.@X=XH >.>.-.;.u.r.r.t.#.& ^ 5X3X3X3X3X6X2XK L.W.U.U.%X%XB.> d ! Q ! Y ! |  X",
"R ~ R ^ ! T 4 +.%XW.%XP.W.%XG <X2X1X>Xp.>Xp.L S h b.XXJ.q.u.u.u.e.u.8.e.w.:.m F A.L :X>X<X<X<XJ W.U.m.W.%X%XB.3 d ^ ! ! ! _ ` }.",
"! R R ) ) T 8 9 E.W.%XP.%X%XG L G F E O.c.n.N.C.L.@X$X9.u.u.u.u.u.e.C e.w.:.<.F +Xn.x.h E F S q W.U.K.%XOXP.a 3 U ^ ! ! ! ) _ [.",
"^ R ! ^ ^ R ^ u 9 U.Y.K.U.b.a m.@X%X*X*X&X%XW.U.%X;Xi.r.u.u.u.u.u.r.V r.e.<.Z & l *XoX@X@X#XOXb.N.B.m.%XU.a 3 ! ) _ _ ' ^ ) _  X",
"( ! ! ! T T R T 3 o.%XY.o.+.P.U.XXoXoXoXXXP.C.B.B.H.e.r.u.u.u.u.r.e.C u.u.<.N b B +XC.C.XXXXoXXXP.M.P.%XB.3 T ^ ^ ! ) ) ! ! ! ~.",
") ) ) ! U U T U 4 0 W.%Xo.P.Y.Y.Y.Y.OXOXOXY.Y.U.oXH u.r.u.u.u.u.r.r.Z u.u.,.<.8.>.a U.oXY.Y.%X%XOXB.U.*X+.e ^ ! Q U ! ^ U Y ! X.",
"_ _ T P s U P P 8 0 Y.%X@.K.P.P.P.U.P.P.U.P.P.P.+X#.r.r.u.u.u.u.r.3.<.r.u.3.,.4.&   oXP.P.P.P.P.XXM.U.%XO.4 ^ ) ! U P s U ! ! {.",
"` _ T T ! R U T T 0 E.*X@.+.b.+.l.B.B.M.b.m.N.b.XX$.e.e.u.u.u.u.e.V r.e.u.r.C C * & N.M.M.x.M.x.@.@.U.W.o.q ) ] ~ P P P U R _ }.",
"] ) ^ ! Q ! U ) ) a U.*XM.M.N.B.P.U.U.P.L.U.P.V.U.&.u.r.u.u.u.u.2.6.u.u.u.5.-.7.6.E C.V.V.V.C.V.m.l.L.W.j u ( _ Y U P P d R _ [.",
"R ^ ) T Y Q U ! ` a U.*XM.OX%X%X%X*X%X%X*XW.W.&X%X;Xq.y.u.u.r.r.Z r.u.u.e.,.N x 0 -X&X%X%X%X&X%XU.l.V.W.g t ! ) R P U i U Y _ }.",
"R R ^ R Y U Y ! ! 9 U.%X+.U.%X%X%X%X*X%XW.*X*X%X%X-X$Xi.7.r.e.r.Z 0.u.w.0.y.9.W -X*X%X%X%X&X%X%XU.+.V.Y.j t ! ^ R P U P i U ~ `.",
"^ ) R ^ ! R ^ T Y 6 I.%XO.U.%X%X%X*X%X&X%X%X&X%XW.&X-X;X;XeXH m * =.6.q.:.V m =X*X%X%X%X%X%X%X@XL.j.V.@Xj e R ! ! P U U U T ! [.",
"_ ) R T _ ^ _ R ! 3 g j 9 g g.h.c.j.h.g.h.g.h.h.h.h.h.h.k./.S & X /.Z ,.b & O /.c.g.E E h E h g q 5 0 g > u ! _ ) R ! U T U Y ~.",
"~.Q.Q.Q.'.'.'.~.`.t $ $ + - , , 2 2 2 2 2 7 7 7 7 8 8 8 < v.i.4.6 ^ 2.4.V b * } 8 8 7 1 2 , - , - + + $ : / _  .~.Q.| ' |  .X..X",
"^ ) T ^ _ ' _ ) ! u $ @ # : e e 4 3 3 e p 3 e e 4 4 4 4 4 Q.6.u.W [ 8.u.2.-.V [ u e p e 4 4 4 4 4 : . o : ! U ) ~ R ! R Y ! _ }.",
"R ! ^ ) ^ T R ) ! R u 3 s ( ] ) _ _ ) ) | ! ! ^ ) ! ! ^ ~ '.7.u.G.(.8.r.<.V * [ ! ( ' U s s U i U R s d T T T ! ^ ! T T Y ! _  X",
"T R R T ! R U ! R ^ ^ R ! ] ] ) _ _ ) ^ | ! ^ _ _ ) ^ ^ ` J.8.u.G.).7.r.3.:.#.v.! Q | T U i U s T ^ ( ^ ^ P T T R ) _ ! ! ^ ( [.",
") ! T T ! ! s U R ^ ~ ^ ^ _ ( ! ^ ) ^ ! ~._  .~. .| _ ) X.J.t.u.G.{.3.r.3.:.3.! } ).|.!.!.! U U R ) ( ^ ! T T T ! _ | _ ` ! ! [.",
"^ R U R ^ R P U R R R R R / ^ R ^ ^ _ {..XZ.&.$.&.J v.^.~.K 7.w.&.~.:.r.7.:.N & D . B -.= k ( s ~ _ _ ) ^ ! R ^ _ ] ' ) ! R ( }.",
") R T P I U P U R ! U U ! _ ^ ) ! | {.=.t.e.e.8.3.;.-.C N V ;.3.2.!.;.r.e.:.>.,.9.B 2.0.m - ..d R ^ _ R ! ! ) ] _ ] R T T T ^ `.",
"R R ! R ) Y P U R ! Y U ^ ^ ^ ^ ! ^.=.0.e.e.8.-.-.0.r.e.u.u.w.4.,.Z 3.u.r.7.:.7.e.e.u.e.>.& !.! R R ^ ^ ^ ! ^ R ^ ! ) R T P R `.",
"R T ^ ] ) Y P P R ! R U T ! R ! ) Q.;.q.7.e.-.-.r.u.e.u.u.u.r.u.u.u.u.r.r.r.9.2.2.u.u.t.%.< _.! ! ^ ! ! ) ) T T T ) R R R R R [.",
") ) R ` ` ) Y P U ! R P U ^ ! ^ ) c.2.3.3.e.M >.e.3.7.r.u.r.r.u.r.u.r.r.r.r.r.0.5.,.y.6.= p [.) ) ( I R ( ) R R ) ) ) ) ! Y ! [.",
"R T Y ` ) ) R T T R R U P T T _ !.y n ;.<.r.v 4.u.V t.u.u.u.e.u.u.r.r.r.e.r.r.e.t.A `.] k [ )._ T R P T R ^ R R ~ ~ ~ ) Y Y ! [.",
"T T T _ ~ ) _ ! R ( ) ! U ^ ^ _ _.).!._.'.K q >.r.N t.t.1.N 7.y.M x b M B H H J q ; w !.} ' / ! R ^ U s R R T P Y ~ ` ` ! ~ `  X",
"T T Y ! ~ R Y R R ^ ) R ^ ) ( ! _ ( ^ ( v.).k # G F G H ! z [ } (. . .' ) ^ ( } (  ..X~. .' ! ! T ^ U U R R T P P Y `  .) Y ) }.",
"U T R R ~ ~ R R ^ ! ^ ^ ^ R T T ^ ^ U U ] _ ) ) ! U P U U P P U ! T R ] ( T T ^ ( _ | ^ R R ! ^ ^ ^ ^ P R ^ R P P Y _ ! ! Y ! }.",
"U T T T ! _ } ` ) ^ ! T _ ! R U U P P !  .} _ R P P U P P P Y ~ ) R ~ ` _ ! R ^ ^ ' } ^ ! ) ! ) ) _ ^ T U ! Q Y P U U U Y ! _ .X",
"! R ! ) _  ._ _ ! ! ^ ^ _ ] ! s P i Y Y  .| _ Y Y ! Y U U Y ~ ~ ) ! ! ` ] _ ) ^ T ` | _ ^ ^ ! ! ! ! ^ T T Q Y U U Y ! R U T ) .X",
"R ! _ _ ] ] ^ Y I ! ^ ^ ) _ ! U P P P ~  .| ) ~ ! ! Y Y ) ` ) ) ~ ! ~ ! _ ] _ T R ^ | ! ! ) ^ R ) ) ^ ! ! ! Q U P ! ! R U ! ` {.",
"T ^ ) ! _ _ Y U U s T ^ ) ~ U P Y i Y Y `.) ~ ) Y Y ! P ~  .` ` ) ~ R U ) _ ^ T ! ! } ! ) _ ) ) ] ' ! ! ^ ) ! ! P Y ! U Q ! ! X.",
"^ ! R P Y ^ ( ! Y Q ! ) ! ! U P U P P P  .! ! ! T U d T ! ) ! Y ! Q T Y ^ _ ^ R Q ! } ) _ ' ` _ ] ] ^ T ! ! Y ^ ! Q ! ) ! ! ! X.",
"^ ^ T R Y Y ! ) U ! ! ^ ! ) R P U U U Y  .) ) ! ! ! R R Y Y ~ U Y T U U R ^ ( R ^ )  .` ^ ) _ _ ^ ^ ! ! ! Y ! _ ) ) ) ) ! ~ _ }.",
"! ! T T Y ( ~ ( U Y ! Y ! ) ~ R Q U Y P } | ! ! Q _ ^ _ Y ) ) ! T T U Q ! ! R ) ) _ ( R ! Y T ! Q Y ! ! ) ) _ _ ` } | ! ! ! |  X",
"i d i i U ! Y Q U i Q U Q ! Q Y Y i U i ( ( Y U u Y ! ( ! Q ! ! U U U d T U Y ! Q Q Q i i d i i d i U ! ( Q ! ) ! ) ( Q Y Q ! X."
};
