/* XPM */
static char *result[] = {
/* columns rows colors chars-per-pixel */
"64 64 61 1 ",
"  c #76736D",
". c #7A7771",
"X c #7C7974",
"o c #817F79",
"O c #8A8983",
"+ c #8F8D88",
"@ c #928F8A",
"# c #95938F",
"$ c #989690",
"% c #9D9B95",
"& c #9E9E9A",
"* c #A19F9A",
"= c #A4A29D",
"- c #A5A5A3",
"; c #A8A6A0",
": c #A5A8A6",
"> c #AAA9A5",
", c #A7AAA8",
"< c #ACADAB",
"1 c #B0AFAB",
"2 c #AEB0AE",
"3 c #B1B1AE",
"4 c #AEB2B2",
"5 c #B4B5B3",
"6 c #B8B7B4",
"7 c #B5B8B7",
"8 c #B9B9B6",
"9 c #B4B7B8",
"0 c #B6BABB",
"q c #BBBDBC",
"w c #C1BFB8",
"e c #BFC0BF",
"r c #C1C1BE",
"t c #BCBFC1",
"y c #BEC2C3",
"u c #BFC5C8",
"i c #C3C4C4",
"p c #C7C8C7",
"a c #C9C9C6",
"s c #C4C6C9",
"d c #C6C9CA",
"f c #CACCCC",
"g c #CED0CE",
"h c #D1D2CE",
"j c #CCCED0",
"k c #CED1D2",
"l c #D2D4D5",
"z c #D6D8D7",
"x c #D8D8D6",
"c c #D5D7D8",
"v c #D6D9D9",
"b c #DADCDC",
"n c #DDE0DF",
"m c #E0E1DF",
"M c #DDDFE0",
"N c #DFE1E0",
"B c #E2E4E3",
"V c #E6E8E7",
"C c #E7EAE8",
"Z c #E9EBE9",
"A c None",
/* pixels */
"qiihlhhhlhllhllweiryrgxzhllxlllxzfaapapippffddareeeeyeeee0udggaf",
"lBmbbmBBBBNBmBBlhBCnnnBNVBBBBnmBVCCZZZZVCZZZZZZnxxzzvzvvzkkzzkkb",
"lmbxbbBNmBmMmBmaexBnnbnnnBVBnxxnmBnBVZVBCCCZZZZxgvzlcczkkzczvkzn",
"hmbbbMNBmMBMBmbirnnxnnnbbbnBBbbbmVnnVVVBCZZCCZZzgxbzzzclvnvvvczb",
"imbbMBNNNBNNbNbirnnnnNNNnnnBVBNNBVBbnVVVVZZZVVVhabcvbvvcbbvvbckN",
"wmbbbMNnNNNmbbnirnnnnnVNVVBBCCBBVVBbbnVCCmZZCCmhpxzbnnNvkklvbkcN",
"rmmMBbBNnbnnnnmirnVVbznVBVVVCZVVBBnbbzmVCVCZCZVaizzbnnvkjkcvvlbB",
"immMNBbbbvbnnmmarnZZnzlnnNVVVZZCCBbzllzNCCCZCZZhanbbcbckkclvzvnV",
"iNnnnnnnzbnNNBBarnVZVnzzbnnVCCZZCVxzxzlznVCZZVZhuMMMcccfjccccNNB",
"ennnnnznbbnNBNBaexmVVmnzbnmmBmVCZCnxnnnnnnVCZCChsMMMljjkkcccbNNB",
"qnnnnnnvbnmBBBNfrgnBVnnznmBVBBmmCCZBnVCVNnnnCZVhdbccckfccccbbnnB",
"qnnvnnxbnnBNnBBarznnxxnxnBVCZBmmBVCCVmVVCnnnnmVgivclckckcccbbvbN",
"qnxbxnbnnNNNBNBgannxbxnnBBmCZZZCBnVCBBVVZCBnnnnarzlvvzlvbcllkcvb",
"qmbxznnnnnNBBNngrnmhnxxnBVVZZZCZZBmVCmmmZVVnnnngabbbvvzvclklkkzf",
"8mnxxnnnnnmmmBnhrxBzzbnnVVVCZZCVZCVnNnnVCVmCVVmhfbbbxbzbckkzlklf",
"Axhaagghghxhhhharigaeiaagxhhhxxxxxhgghhhzhhhhhhrraipiiiieeeryiae",
"Axhaaahgggggggfaaaaieqrriiiiagggwhfiafjjhffffjssaairtuiiqeeiiiae",
"qbxbnbxxbbnxxxzbbxzzllzxczxxzzvb1bxcbMmMxmmMmMccnnbllMcclccvbxxf",
"8bbbbbxbnnbnnnzczlbbbbnnbbnnnblz*xxMmbMbmmvMmMcMNvllMlMlcccMvxcf",
"qmxbbbxnbnnMnnzblvbbxbbnMnnnbnbz*xbMMmMbMxxMMbMMbvvllMlMvvcvvvxf",
"7nbbxbbnMbMbMbcllznnnnvnNnnbccbM*MbbMcMMccMbcccccbcccvjccccvMcxd",
"7bvnxzzzcMbbclcczzznnnnnNbbbbcbM;MMMMccMcMckclcMvbMMvcMcjjcccccf",
"7zvczczvcllMcllMnvznfnnnMbbvcccv*MbxccccbcclcMcMMMMvcclkjlcccvvf",
"7kkckvvvMllcljlMnzznnnznbbbbcckj*vcccljlbcclcMMMvMcvvllllcvvvvxf",
"8llggllvvllvkjlczzznMMbbMMlccccc*bccvcccccjcMMMcccvvcjjkcvMccccd",
"AzvvvvvbbbbvlkcMzznvvMMMccMcccMM*xbvcclcccccMcMcccccclccvccckcku",
"AvvvbzbbbbbclcvclclcMMbMcMMlMlcM*bbccclccMMcccccclccckcccllkkkkd",
"Axvvvvvbbvvlkldduuujkllclcckldjj*lxckklcbMcMMccccccccccccllclklp",
"Abzzzvcccccjssdsdfjffdddddjkljjt@ccccccMbbvccccclllccfkcclcljkld",
"AlllllljkkkkdddjkccccclckclcMcls+jcccvMcbvcccccclcclcccbcckjklcf",
"Aassdfklkkcllkdjccvvcvvvcvvcccds#jlvvMcMbccccccklclcxvvvcclkllli",
"Aidjllllklkzcljdfjkkffckllcljdtd&djklkjjfsfjjjjjddjjjfjffjpsspfi",
"Aww1>;;;;;>>>==*&===&-&&-,-,,<<,3<<11<>>4,44444&&4553w3ww<333wiq",
"Alhjkjafffjfjffi4tsuskkjssjkccccckkclcccjjjjduj49kckcccvcjlkjlld",
"Ahfhkklllhkcllkr<tjsjcjjfjcccccckkkkklcljcjjjsd,3kkjkvcvcllffjkf",
"Axxlxkjllxkckccr<sjsjjjjccccckckkcckccckjcjckjj4tckjkkcvclkfljji",
"Aclllffjllxlkckr3skcldjckccccckkkckccclkjjccccj,3kfjlkjkcckfllfi",
"Ahhlljajljkxxkjr5sjkjsjjkkjcccccckckkklljcccccct5kffccjklckjlljr",
"Affllfajjjkccjka3isjssjjjjjckkjjdjkjkkllccccccct5kjflcckjkkjllki",
"Ahfhjffkkjjjjkcs3tssjjkjjddtuuttujjkklllccjcjcj,3jfskcckjjffjcki",
"Alfhffjlkkffjkji3qttsjjdjstttyysjjjcccjccjcjcjct<fssjcckkjfsjlji",
"Aaadffjhkckkkjfr-4tttjjdfstssjkkjjjcjjjjjjjjjuu4>fjjdjkjkkjsjkji",
"Ahfdsflkkkjjffjr-9tqssjsssfkllkjjjjjjjdjjjduuut&-sjjjjkjjkffjfji",
"Adddiisjclljjkjr>ttssssdfjkkjjjjsjjjjsssustuuut&-ydddsssjjsjjfda",
"Afjdssisfjjfjcji>6sfsssjkkkkjjfdjjjjssssutttttt&<sfjfssifssjjddi",
"Ajsiisiiffffkcci>6ifjjjckkjfsfsdjsjsddsuuutt4,t-<ssjsjfistyjjfdr",
"Aat59yuytsfjjkji1tjjjlcjkjsssfsjsjssdsuttttt4tut3ffjsjjttytsffdr",
"Aq5<><<3313668q6>6q8qqq9953333564999994<t44,ttt,<55wqt94<<<wqrqw",
"Aiwqw666558qwq8666666w66tt6><<36O37ee0057315eiieqw6wirrq637qriai",
"Axlcccxlfdfklkdirstssjffcxlitijsoyikgkzjdieihzzzxjdlvxbzgidfzzxn",
"Abxxlxxlchjfaaiitrriysfflcldrist.yydzzzkgdpigzznxjfccbzzgaiahzzn",
"Abxxlhcxcxxkjieqqqttiyisflldssiq.0ydkzczkfeyfglzxjhccczzhfaagzzn",
"Abxbxlllzcczlhsq6qttttyysffiysjsXeyjkzzkluepgdfzchhxxxzlggafflxn",
"Ahlxxhhhlzczcllft9tfisiyiissityt 7ejkzzklapykdfzxkhlccllgdiydlxb",
"Alhhxcllhlzzxlllfqqjjfiiisssit9< 2udfzlllkfpkpplchjhlcllfieeygkb",
"Axxhjllllhlzzzlljdtdkjdiqysssq94 70fjgkkkkdyduplkjjjhkljsiaieagk",
"Alzlgggklkhlllzlkkjssjkfqyquyyy0 50uuupdjdy0eepkgdagdfddiddgguya",
"Aflxllgdfllllllzllkkfjjdeeyuu0e9.,,00eyyuuy444epiuuufy80yyigggfg",
"Aadklxzgdhhllllllllcljjs0qsfdu09.72eu0050y0044uyeeeeaye8qeiggkgz",
"Adiagllzhdfjglhllllkjjhjy0usuu04X04eu045yee099ufieepafgdeysffdgz",
"Apieesjkkgddfgkklhjfdsjlfyttyuy9X440y94404e0eesgdiiiagggayiuidfl",
"Aaqqeeeikggiaffgaddiisffjdyyt009o,ee94400,,yyyddfiyyfkkkgyeeyeuf",
"8faree77iggggfadddaipidfffduyyye,eye4,:,e07yuesdiaeigkkggp00828a",
"Allgie50edgzglzkhiqq0000yyqy009eA54554,,qe40e80ee8qeiyiyyee8e27e"
};
